<svg xmlns="http://www.w3.org/2000/svg" version="1.1" xmlns:xlink="http://www.w3.org/1999/xlink" xmlns:svgjs="http://svgjs.dev/svgjs" width="1366" height="384" preserveAspectRatio="none" viewBox="0 0 1366 384"><g mask="url(&quot;#SvgjsMask1084&quot;)" fill="none"><path d="M23 384L407 0L494 0L110 384z" fill="url(&quot;#SvgjsLinearGradient1085&quot;)"></path><path d="M268.39 384L652.39 0L730.39 0L346.39 384z" fill="url(&quot;#SvgjsLinearGradient1085&quot;)"></path><path d="M474.78000000000003 384L858.78 0L954.78 0L570.78 384z" fill="url(&quot;#SvgjsLinearGradient1085&quot;)"></path><path d="M692.1700000000001 384L1076.17 0L1358.17 0L974.1700000000001 384z" fill="url(&quot;#SvgjsLinearGradient1085&quot;)"></path><path d="M1363 384L979 0L676 0L1060 384z" fill="url(&quot;#SvgjsLinearGradient1086&quot;)"></path><path d="M1112.61 384L728.6099999999999 0L689.6099999999999 0L1073.61 384z" fill="url(&quot;#SvgjsLinearGradient1086&quot;)"></path><path d="M894.22 384L510.22 0L202.72000000000003 0L586.72 384z" fill="url(&quot;#SvgjsLinearGradient1086&quot;)"></path><path d="M651.8299999999999 384L267.8299999999999 0L104.32999999999993 0L488.3299999999999 384z" fill="url(&quot;#SvgjsLinearGradient1086&quot;)"></path><path d="M1166.240660820326 384L1366 184.24066082032596L1366 384z" fill="url(&quot;#SvgjsLinearGradient1085&quot;)"></path><path d="M0 384L199.75933917967404 384L 0 184.24066082032596z" fill="url(&quot;#SvgjsLinearGradient1086&quot;)"></path></g><defs><mask id="SvgjsMask1084"><rect width="1366" height="384" fill="#ffffff"></rect></mask><linearGradient x1="0%" y1="100%" x2="100%" y2="0%" id="SvgjsLinearGradient1085"><stop stop-color="rgba(40, 199, 235, 0.63)" offset="0"></stop><stop stop-opacity="0" stop-color="rgba(40, 199, 235, 0.63)" offset="0.66"></stop></linearGradient><linearGradient x1="100%" y1="100%" x2="0%" y2="0%" id="SvgjsLinearGradient1086"><stop stop-color="rgba(40, 199, 235, 0.63)" offset="0"></stop><stop stop-opacity="0" stop-color="rgba(40, 199, 235, 0.63)" offset="0.66"></stop></linearGradient></defs></svg>