<svg xmlns="http://www.w3.org/2000/svg" version="1.1" xmlns:xlink="http://www.w3.org/1999/xlink" xmlns:svgjs="http://svgjs.dev/svgjs" width="1440" height="800" preserveAspectRatio="none" viewBox="0 0 1440 800"><g mask="url(&quot;#SvgjsMask1206&quot;)" fill="none"><path d="M-68.02 502.46L-68.02 502.46" stroke="rgba(219, 180, 101, 1)" stroke-width="1.5"></path><path d="M-68.02 502.46L49.95 511.66" stroke="rgba(219, 180, 101, 1)" stroke-width="1.5"></path><path d="M-68.02 502.46L-66.33 676.02" stroke="rgba(219, 180, 101, 1)" stroke-width="1.5"></path><path d="M-68.02 502.46L78.86 696.75" stroke="rgba(219, 180, 101, 1)" stroke-width="1.5"></path><path d="M-68.02 502.46L189.47 683.03" stroke="rgba(219, 180, 101, 1)" stroke-width="1.5"></path><path d="M-68.02 502.46L255.92 532.81" stroke="rgba(219, 180, 101, 1)" stroke-width="1.5"></path><path d="M-66.33 676.02L-66.33 676.02" stroke="rgba(219, 180, 101, 1)" stroke-width="1.5"></path><path d="M-66.33 676.02L78.86 696.75" stroke="rgba(219, 180, 101, 1)" stroke-width="1.5"></path><path d="M-66.33 676.02L-104.36 838.41" stroke="rgba(219, 180, 101, 1)" stroke-width="1.5"></path><path d="M-104.36 838.41L-104.36 838.41" stroke="rgba(219, 180, 101, 1)" stroke-width="1.5"></path><path d="M-104.36 838.41L-101.57 953.94" stroke="rgba(219, 180, 101, 1)" stroke-width="1.5"></path><path d="M-101.57 953.94L-101.57 953.94" stroke="rgba(219, 180, 101, 1)" stroke-width="1.5"></path><path d="M-101.57 953.94L74.44 801.24" stroke="rgba(219, 180, 101, 1)" stroke-width="1.5"></path><path d="M49.95 511.66L49.95 511.66" stroke="rgba(219, 180, 101, 1)" stroke-width="1.5"></path><path d="M49.95 511.66L78.86 696.75" stroke="rgba(219, 180, 101, 1)" stroke-width="1.5"></path><path d="M49.95 511.66L-66.33 676.02" stroke="rgba(219, 180, 101, 1)" stroke-width="1.5"></path><path d="M49.95 511.66L255.92 532.81" stroke="rgba(219, 180, 101, 1)" stroke-width="1.5"></path><path d="M49.95 511.66L189.47 683.03" stroke="rgba(219, 180, 101, 1)" stroke-width="1.5"></path><path d="M49.95 511.66L74.44 801.24" stroke="rgba(219, 180, 101, 1)" stroke-width="1.5"></path><path d="M78.86 696.75L78.86 696.75" stroke="rgba(219, 180, 101, 1)" stroke-width="1.5"></path><path d="M78.86 696.75L74.44 801.24" stroke="rgba(219, 180, 101, 1)" stroke-width="1.5"></path><path d="M78.86 696.75L189.47 683.03" stroke="rgba(219, 180, 101, 1)" stroke-width="1.5"></path><path d="M74.44 801.24L74.44 801.24" stroke="rgba(219, 180, 101, 1)" stroke-width="1.5"></path><path d="M74.44 801.24L195.49 804.24" stroke="rgba(219, 180, 101, 1)" stroke-width="1.5"></path><path d="M74.44 801.24L189.47 683.03" stroke="rgba(219, 180, 101, 1)" stroke-width="1.5"></path><path d="M74.44 801.24L-104.36 838.41" stroke="rgba(219, 180, 101, 1)" stroke-width="1.5"></path><path d="M74.44 801.24L-66.33 676.02" stroke="rgba(219, 180, 101, 1)" stroke-width="1.5"></path><path d="M255.92 532.81L255.92 532.81" stroke="rgba(219, 180, 101, 1)" stroke-width="1.5"></path><path d="M255.92 532.81L372.56 562.03" stroke="rgba(219, 180, 101, 1)" stroke-width="1.5"></path><path d="M255.92 532.81L189.47 683.03" stroke="rgba(219, 180, 101, 1)" stroke-width="1.5"></path><path d="M255.92 532.81L370.67 677.05" stroke="rgba(219, 180, 101, 1)" stroke-width="1.5"></path><path d="M255.92 532.81L78.86 696.75" stroke="rgba(219, 180, 101, 1)" stroke-width="1.5"></path><path d="M189.47 683.03L189.47 683.03" stroke="rgba(219, 180, 101, 1)" stroke-width="1.5"></path><path d="M189.47 683.03L195.49 804.24" stroke="rgba(219, 180, 101, 1)" stroke-width="1.5"></path><path d="M189.47 683.03L370.67 677.05" stroke="rgba(219, 180, 101, 1)" stroke-width="1.5"></path><path d="M195.49 804.24L195.49 804.24" stroke="rgba(219, 180, 101, 1)" stroke-width="1.5"></path><path d="M372.56 562.03L372.56 562.03" stroke="rgba(219, 180, 101, 1)" stroke-width="1.5"></path><path d="M372.56 562.03L370.67 677.05" stroke="rgba(219, 180, 101, 1)" stroke-width="1.5"></path><path d="M372.56 562.03L490.18 645.56" stroke="rgba(219, 180, 101, 1)" stroke-width="1.5"></path><path d="M372.56 562.03L529.99 552.37" stroke="rgba(219, 180, 101, 1)" stroke-width="1.5"></path><path d="M370.67 677.05L370.67 677.05" stroke="rgba(219, 180, 101, 1)" stroke-width="1.5"></path><path d="M370.67 677.05L364.9 797.75" stroke="rgba(219, 180, 101, 1)" stroke-width="1.5"></path><path d="M370.67 677.05L490.18 645.56" stroke="rgba(219, 180, 101, 1)" stroke-width="1.5"></path><path d="M364.9 797.75L364.9 797.75" stroke="rgba(219, 180, 101, 1)" stroke-width="1.5"></path><path d="M364.9 797.75L195.49 804.24" stroke="rgba(219, 180, 101, 1)" stroke-width="1.5"></path><path d="M364.9 797.75L490.18 645.56" stroke="rgba(219, 180, 101, 1)" stroke-width="1.5"></path><path d="M364.9 797.75L189.47 683.03" stroke="rgba(219, 180, 101, 1)" stroke-width="1.5"></path><path d="M554.03 400.93L554.03 400.93" stroke="rgba(219, 180, 101, 1)" stroke-width="1.5"></path><path d="M554.03 400.93L690.59 346.56" stroke="rgba(219, 180, 101, 1)" stroke-width="1.5"></path><path d="M554.03 400.93L529.99 552.37" stroke="rgba(219, 180, 101, 1)" stroke-width="1.5"></path><path d="M554.03 400.93L692.36 508.5" stroke="rgba(219, 180, 101, 1)" stroke-width="1.5"></path><path d="M529.99 552.37L529.99 552.37" stroke="rgba(219, 180, 101, 1)" stroke-width="1.5"></path><path d="M529.99 552.37L490.18 645.56" stroke="rgba(219, 180, 101, 1)" stroke-width="1.5"></path><path d="M490.18 645.56L490.18 645.56" stroke="rgba(219, 180, 101, 1)" stroke-width="1.5"></path><path d="M490.18 645.56L653.2 698.26" stroke="rgba(219, 180, 101, 1)" stroke-width="1.5"></path><path d="M690.59 346.56L690.59 346.56" stroke="rgba(219, 180, 101, 1)" stroke-width="1.5"></path><path d="M690.59 346.56L800.32 344.76" stroke="rgba(219, 180, 101, 1)" stroke-width="1.5"></path><path d="M690.59 346.56L692.36 508.5" stroke="rgba(219, 180, 101, 1)" stroke-width="1.5"></path><path d="M690.59 346.56L804.27 228.67" stroke="rgba(219, 180, 101, 1)" stroke-width="1.5"></path><path d="M690.59 346.56L808.31 514.11" stroke="rgba(219, 180, 101, 1)" stroke-width="1.5"></path><path d="M692.36 508.5L692.36 508.5" stroke="rgba(219, 180, 101, 1)" stroke-width="1.5"></path><path d="M692.36 508.5L808.31 514.11" stroke="rgba(219, 180, 101, 1)" stroke-width="1.5"></path><path d="M653.2 698.26L653.2 698.26" stroke="rgba(219, 180, 101, 1)" stroke-width="1.5"></path><path d="M653.2 698.26L670.8 833.07" stroke="rgba(219, 180, 101, 1)" stroke-width="1.5"></path><path d="M653.2 698.26L529.99 552.37" stroke="rgba(219, 180, 101, 1)" stroke-width="1.5"></path><path d="M653.2 698.26L692.36 508.5" stroke="rgba(219, 180, 101, 1)" stroke-width="1.5"></path><path d="M653.2 698.26L808.31 514.11" stroke="rgba(219, 180, 101, 1)" stroke-width="1.5"></path><path d="M653.2 698.26L370.67 677.05" stroke="rgba(219, 180, 101, 1)" stroke-width="1.5"></path><path d="M670.8 833.07L670.8 833.07" stroke="rgba(219, 180, 101, 1)" stroke-width="1.5"></path><path d="M670.8 833.07L683.26 1008.15" stroke="rgba(219, 180, 101, 1)" stroke-width="1.5"></path><path d="M670.8 833.07L862.23 973.77" stroke="rgba(219, 180, 101, 1)" stroke-width="1.5"></path><path d="M670.8 833.07L490.18 645.56" stroke="rgba(219, 180, 101, 1)" stroke-width="1.5"></path><path d="M670.8 833.07L364.9 797.75" stroke="rgba(219, 180, 101, 1)" stroke-width="1.5"></path><path d="M670.8 833.07L529.99 552.37" stroke="rgba(219, 180, 101, 1)" stroke-width="1.5"></path><path d="M683.26 1008.15L683.26 1008.15" stroke="rgba(219, 180, 101, 1)" stroke-width="1.5"></path><path d="M804.27 228.67L804.27 228.67" stroke="rgba(219, 180, 101, 1)" stroke-width="1.5"></path><path d="M804.27 228.67L800.32 344.76" stroke="rgba(219, 180, 101, 1)" stroke-width="1.5"></path><path d="M804.27 228.67L954.69 201.04" stroke="rgba(219, 180, 101, 1)" stroke-width="1.5"></path><path d="M804.27 228.67L964.89 395.03" stroke="rgba(219, 180, 101, 1)" stroke-width="1.5"></path><path d="M804.27 228.67L998.14 84.22" stroke="rgba(219, 180, 101, 1)" stroke-width="1.5"></path><path d="M804.27 228.67L808.31 514.11" stroke="rgba(219, 180, 101, 1)" stroke-width="1.5"></path><path d="M800.32 344.76L800.32 344.76" stroke="rgba(219, 180, 101, 1)" stroke-width="1.5"></path><path d="M800.32 344.76L808.31 514.11" stroke="rgba(219, 180, 101, 1)" stroke-width="1.5"></path><path d="M800.32 344.76L964.89 395.03" stroke="rgba(219, 180, 101, 1)" stroke-width="1.5"></path><path d="M800.32 344.76L692.36 508.5" stroke="rgba(219, 180, 101, 1)" stroke-width="1.5"></path><path d="M800.32 344.76L954.69 201.04" stroke="rgba(219, 180, 101, 1)" stroke-width="1.5"></path><path d="M808.31 514.11L808.31 514.11" stroke="rgba(219, 180, 101, 1)" stroke-width="1.5"></path><path d="M808.31 514.11L967.31 508.69" stroke="rgba(219, 180, 101, 1)" stroke-width="1.5"></path><path d="M808.31 514.11L964.89 395.03" stroke="rgba(219, 180, 101, 1)" stroke-width="1.5"></path><path d="M862.23 973.77L862.23 973.77" stroke="rgba(219, 180, 101, 1)" stroke-width="1.5"></path><path d="M862.23 973.77L984.71 975.9" stroke="rgba(219, 180, 101, 1)" stroke-width="1.5"></path><path d="M862.23 973.77L683.26 1008.15" stroke="rgba(219, 180, 101, 1)" stroke-width="1.5"></path><path d="M862.23 973.77L991.08 812.14" stroke="rgba(219, 180, 101, 1)" stroke-width="1.5"></path><path d="M862.23 973.77L1154.64 947.74" stroke="rgba(219, 180, 101, 1)" stroke-width="1.5"></path><path d="M983.08 -47.42L983.08 -47.42" stroke="rgba(219, 180, 101, 1)" stroke-width="1.5"></path><path d="M983.08 -47.42L1105.99 -55.3" stroke="rgba(219, 180, 101, 1)" stroke-width="1.5"></path><path d="M983.08 -47.42L998.14 84.22" stroke="rgba(219, 180, 101, 1)" stroke-width="1.5"></path><path d="M983.08 -47.42L1121.65 64.77" stroke="rgba(219, 180, 101, 1)" stroke-width="1.5"></path><path d="M983.08 -47.42L954.69 201.04" stroke="rgba(219, 180, 101, 1)" stroke-width="1.5"></path><path d="M983.08 -47.42L1257.13 96.89" stroke="rgba(219, 180, 101, 1)" stroke-width="1.5"></path><path d="M998.14 84.22L998.14 84.22" stroke="rgba(219, 180, 101, 1)" stroke-width="1.5"></path><path d="M998.14 84.22L954.69 201.04" stroke="rgba(219, 180, 101, 1)" stroke-width="1.5"></path><path d="M998.14 84.22L1121.65 64.77" stroke="rgba(219, 180, 101, 1)" stroke-width="1.5"></path><path d="M998.14 84.22L1105.99 -55.3" stroke="rgba(219, 180, 101, 1)" stroke-width="1.5"></path><path d="M998.14 84.22L1257.13 96.89" stroke="rgba(219, 180, 101, 1)" stroke-width="1.5"></path><path d="M954.69 201.04L954.69 201.04" stroke="rgba(219, 180, 101, 1)" stroke-width="1.5"></path><path d="M954.69 201.04L964.89 395.03" stroke="rgba(219, 180, 101, 1)" stroke-width="1.5"></path><path d="M954.69 201.04L1088.94 348.29" stroke="rgba(219, 180, 101, 1)" stroke-width="1.5"></path><path d="M954.69 201.04L1121.65 64.77" stroke="rgba(219, 180, 101, 1)" stroke-width="1.5"></path><path d="M964.89 395.03L964.89 395.03" stroke="rgba(219, 180, 101, 1)" stroke-width="1.5"></path><path d="M964.89 395.03L967.31 508.69" stroke="rgba(219, 180, 101, 1)" stroke-width="1.5"></path><path d="M964.89 395.03L1088.94 348.29" stroke="rgba(219, 180, 101, 1)" stroke-width="1.5"></path><path d="M967.31 508.69L967.31 508.69" stroke="rgba(219, 180, 101, 1)" stroke-width="1.5"></path><path d="M967.31 508.69L975.68 638.76" stroke="rgba(219, 180, 101, 1)" stroke-width="1.5"></path><path d="M975.68 638.76L975.68 638.76" stroke="rgba(219, 180, 101, 1)" stroke-width="1.5"></path><path d="M975.68 638.76L1127.64 561.19" stroke="rgba(219, 180, 101, 1)" stroke-width="1.5"></path><path d="M975.68 638.76L991.08 812.14" stroke="rgba(219, 180, 101, 1)" stroke-width="1.5"></path><path d="M991.08 812.14L991.08 812.14" stroke="rgba(219, 180, 101, 1)" stroke-width="1.5"></path><path d="M991.08 812.14L984.71 975.9" stroke="rgba(219, 180, 101, 1)" stroke-width="1.5"></path><path d="M991.08 812.14L1160.19 795.13" stroke="rgba(219, 180, 101, 1)" stroke-width="1.5"></path><path d="M984.71 975.9L984.71 975.9" stroke="rgba(219, 180, 101, 1)" stroke-width="1.5"></path><path d="M984.71 975.9L1154.64 947.74" stroke="rgba(219, 180, 101, 1)" stroke-width="1.5"></path><path d="M984.71 975.9L1160.19 795.13" stroke="rgba(219, 180, 101, 1)" stroke-width="1.5"></path><path d="M984.71 975.9L683.26 1008.15" stroke="rgba(219, 180, 101, 1)" stroke-width="1.5"></path><path d="M1105.99 -55.3L1105.99 -55.3" stroke="rgba(219, 180, 101, 1)" stroke-width="1.5"></path><path d="M1105.99 -55.3L1121.65 64.77" stroke="rgba(219, 180, 101, 1)" stroke-width="1.5"></path><path d="M1121.65 64.77L1121.65 64.77" stroke="rgba(219, 180, 101, 1)" stroke-width="1.5"></path><path d="M1088.94 348.29L1088.94 348.29" stroke="rgba(219, 180, 101, 1)" stroke-width="1.5"></path><path d="M1088.94 348.29L967.31 508.69" stroke="rgba(219, 180, 101, 1)" stroke-width="1.5"></path><path d="M1127.64 561.19L1127.64 561.19" stroke="rgba(219, 180, 101, 1)" stroke-width="1.5"></path><path d="M1127.64 561.19L1144.28 687.82" stroke="rgba(219, 180, 101, 1)" stroke-width="1.5"></path><path d="M1127.64 561.19L1259.97 509.29" stroke="rgba(219, 180, 101, 1)" stroke-width="1.5"></path><path d="M1127.64 561.19L1269.82 642.66" stroke="rgba(219, 180, 101, 1)" stroke-width="1.5"></path><path d="M1127.64 561.19L967.31 508.69" stroke="rgba(219, 180, 101, 1)" stroke-width="1.5"></path><path d="M1144.28 687.82L1144.28 687.82" stroke="rgba(219, 180, 101, 1)" stroke-width="1.5"></path><path d="M1144.28 687.82L1160.19 795.13" stroke="rgba(219, 180, 101, 1)" stroke-width="1.5"></path><path d="M1144.28 687.82L1269.82 642.66" stroke="rgba(219, 180, 101, 1)" stroke-width="1.5"></path><path d="M1144.28 687.82L1245.71 820.82" stroke="rgba(219, 180, 101, 1)" stroke-width="1.5"></path><path d="M1144.28 687.82L975.68 638.76" stroke="rgba(219, 180, 101, 1)" stroke-width="1.5"></path><path d="M1144.28 687.82L991.08 812.14" stroke="rgba(219, 180, 101, 1)" stroke-width="1.5"></path><path d="M1160.19 795.13L1160.19 795.13" stroke="rgba(219, 180, 101, 1)" stroke-width="1.5"></path><path d="M1160.19 795.13L1245.71 820.82" stroke="rgba(219, 180, 101, 1)" stroke-width="1.5"></path><path d="M1160.19 795.13L1154.64 947.74" stroke="rgba(219, 180, 101, 1)" stroke-width="1.5"></path><path d="M1160.19 795.13L1269.82 642.66" stroke="rgba(219, 180, 101, 1)" stroke-width="1.5"></path><path d="M1160.19 795.13L1300.81 976.75" stroke="rgba(219, 180, 101, 1)" stroke-width="1.5"></path><path d="M1154.64 947.74L1154.64 947.74" stroke="rgba(219, 180, 101, 1)" stroke-width="1.5"></path><path d="M1154.64 947.74L1300.81 976.75" stroke="rgba(219, 180, 101, 1)" stroke-width="1.5"></path><path d="M1311.37 -49.52L1311.37 -49.52" stroke="rgba(219, 180, 101, 1)" stroke-width="1.5"></path><path d="M1311.37 -49.52L1408.53 -90.94" stroke="rgba(219, 180, 101, 1)" stroke-width="1.5"></path><path d="M1311.37 -49.52L1399.04 72.78" stroke="rgba(219, 180, 101, 1)" stroke-width="1.5"></path><path d="M1311.37 -49.52L1257.13 96.89" stroke="rgba(219, 180, 101, 1)" stroke-width="1.5"></path><path d="M1311.37 -49.52L1105.99 -55.3" stroke="rgba(219, 180, 101, 1)" stroke-width="1.5"></path><path d="M1311.37 -49.52L1121.65 64.77" stroke="rgba(219, 180, 101, 1)" stroke-width="1.5"></path><path d="M1311.37 -49.52L1254.43 195.5" stroke="rgba(219, 180, 101, 1)" stroke-width="1.5"></path><path d="M1257.13 96.89L1257.13 96.89" stroke="rgba(219, 180, 101, 1)" stroke-width="1.5"></path><path d="M1257.13 96.89L1254.43 195.5" stroke="rgba(219, 180, 101, 1)" stroke-width="1.5"></path><path d="M1257.13 96.89L1121.65 64.77" stroke="rgba(219, 180, 101, 1)" stroke-width="1.5"></path><path d="M1257.13 96.89L1399.04 72.78" stroke="rgba(219, 180, 101, 1)" stroke-width="1.5"></path><path d="M1254.43 195.5L1254.43 195.5" stroke="rgba(219, 180, 101, 1)" stroke-width="1.5"></path><path d="M1254.43 195.5L1121.65 64.77" stroke="rgba(219, 180, 101, 1)" stroke-width="1.5"></path><path d="M1254.43 195.5L1399.04 72.78" stroke="rgba(219, 180, 101, 1)" stroke-width="1.5"></path><path d="M1254.43 195.5L1309.24 386.17" stroke="rgba(219, 180, 101, 1)" stroke-width="1.5"></path><path d="M1254.43 195.5L1088.94 348.29" stroke="rgba(219, 180, 101, 1)" stroke-width="1.5"></path><path d="M1309.24 386.17L1309.24 386.17" stroke="rgba(219, 180, 101, 1)" stroke-width="1.5"></path><path d="M1309.24 386.17L1410.43 358.48" stroke="rgba(219, 180, 101, 1)" stroke-width="1.5"></path><path d="M1309.24 386.17L1259.97 509.29" stroke="rgba(219, 180, 101, 1)" stroke-width="1.5"></path><path d="M1309.24 386.17L1394.67 543.6" stroke="rgba(219, 180, 101, 1)" stroke-width="1.5"></path><path d="M1259.97 509.29L1259.97 509.29" stroke="rgba(219, 180, 101, 1)" stroke-width="1.5"></path><path d="M1259.97 509.29L1269.82 642.66" stroke="rgba(219, 180, 101, 1)" stroke-width="1.5"></path><path d="M1259.97 509.29L1394.67 543.6" stroke="rgba(219, 180, 101, 1)" stroke-width="1.5"></path><path d="M1269.82 642.66L1269.82 642.66" stroke="rgba(219, 180, 101, 1)" stroke-width="1.5"></path><path d="M1269.82 642.66L1423.16 647.74" stroke="rgba(219, 180, 101, 1)" stroke-width="1.5"></path><path d="M1269.82 642.66L1394.67 543.6" stroke="rgba(219, 180, 101, 1)" stroke-width="1.5"></path><path d="M1245.71 820.82L1245.71 820.82" stroke="rgba(219, 180, 101, 1)" stroke-width="1.5"></path><path d="M1245.71 820.82L1154.64 947.74" stroke="rgba(219, 180, 101, 1)" stroke-width="1.5"></path><path d="M1245.71 820.82L1300.81 976.75" stroke="rgba(219, 180, 101, 1)" stroke-width="1.5"></path><path d="M1245.71 820.82L1269.82 642.66" stroke="rgba(219, 180, 101, 1)" stroke-width="1.5"></path><path d="M1245.71 820.82L1425.04 789.55" stroke="rgba(219, 180, 101, 1)" stroke-width="1.5"></path><path d="M1300.81 976.75L1300.81 976.75" stroke="rgba(219, 180, 101, 1)" stroke-width="1.5"></path><path d="M1300.81 976.75L1395.59 946.74" stroke="rgba(219, 180, 101, 1)" stroke-width="1.5"></path><path d="M1300.81 976.75L1425.04 789.55" stroke="rgba(219, 180, 101, 1)" stroke-width="1.5"></path><path d="M1408.53 -90.94L1408.53 -90.94" stroke="rgba(219, 180, 101, 1)" stroke-width="1.5"></path><path d="M1408.53 -90.94L1399.04 72.78" stroke="rgba(219, 180, 101, 1)" stroke-width="1.5"></path><path d="M1408.53 -90.94L1592.63 -99.83" stroke="rgba(219, 180, 101, 1)" stroke-width="1.5"></path><path d="M1399.04 72.78L1399.04 72.78" stroke="rgba(219, 180, 101, 1)" stroke-width="1.5"></path><path d="M1410.43 358.48L1410.43 358.48" stroke="rgba(219, 180, 101, 1)" stroke-width="1.5"></path><path d="M1410.43 358.48L1394.67 543.6" stroke="rgba(219, 180, 101, 1)" stroke-width="1.5"></path><path d="M1410.43 358.48L1541.46 212.37" stroke="rgba(219, 180, 101, 1)" stroke-width="1.5"></path><path d="M1394.67 543.6L1394.67 543.6" stroke="rgba(219, 180, 101, 1)" stroke-width="1.5"></path><path d="M1394.67 543.6L1423.16 647.74" stroke="rgba(219, 180, 101, 1)" stroke-width="1.5"></path><path d="M1394.67 543.6L1589.86 509.36" stroke="rgba(219, 180, 101, 1)" stroke-width="1.5"></path><path d="M1423.16 647.74L1423.16 647.74" stroke="rgba(219, 180, 101, 1)" stroke-width="1.5"></path><path d="M1423.16 647.74L1425.04 789.55" stroke="rgba(219, 180, 101, 1)" stroke-width="1.5"></path><path d="M1425.04 789.55L1425.04 789.55" stroke="rgba(219, 180, 101, 1)" stroke-width="1.5"></path><path d="M1425.04 789.55L1553.9 829.34" stroke="rgba(219, 180, 101, 1)" stroke-width="1.5"></path><path d="M1425.04 789.55L1395.59 946.74" stroke="rgba(219, 180, 101, 1)" stroke-width="1.5"></path><path d="M1425.04 789.55L1269.82 642.66" stroke="rgba(219, 180, 101, 1)" stroke-width="1.5"></path><path d="M1395.59 946.74L1395.59 946.74" stroke="rgba(219, 180, 101, 1)" stroke-width="1.5"></path><path d="M1395.59 946.74L1245.71 820.82" stroke="rgba(219, 180, 101, 1)" stroke-width="1.5"></path><path d="M1395.59 946.74L1553.9 829.34" stroke="rgba(219, 180, 101, 1)" stroke-width="1.5"></path><path d="M1395.59 946.74L1586.44 999.6" stroke="rgba(219, 180, 101, 1)" stroke-width="1.5"></path><path d="M1395.59 946.74L1154.64 947.74" stroke="rgba(219, 180, 101, 1)" stroke-width="1.5"></path><path d="M1592.63 -99.83L1592.63 -99.83" stroke="rgba(219, 180, 101, 1)" stroke-width="1.5"></path><path d="M1592.63 -99.83L1577.66 46.28" stroke="rgba(219, 180, 101, 1)" stroke-width="1.5"></path><path d="M1592.63 -99.83L1399.04 72.78" stroke="rgba(219, 180, 101, 1)" stroke-width="1.5"></path><path d="M1592.63 -99.83L1311.37 -49.52" stroke="rgba(219, 180, 101, 1)" stroke-width="1.5"></path><path d="M1592.63 -99.83L1541.46 212.37" stroke="rgba(219, 180, 101, 1)" stroke-width="1.5"></path><path d="M1577.66 46.28L1577.66 46.28" stroke="rgba(219, 180, 101, 1)" stroke-width="1.5"></path><path d="M1577.66 46.28L1541.46 212.37" stroke="rgba(219, 180, 101, 1)" stroke-width="1.5"></path><path d="M1577.66 46.28L1399.04 72.78" stroke="rgba(219, 180, 101, 1)" stroke-width="1.5"></path><path d="M1577.66 46.28L1408.53 -90.94" stroke="rgba(219, 180, 101, 1)" stroke-width="1.5"></path><path d="M1577.66 46.28L1311.37 -49.52" stroke="rgba(219, 180, 101, 1)" stroke-width="1.5"></path><path d="M1541.46 212.37L1541.46 212.37" stroke="rgba(219, 180, 101, 1)" stroke-width="1.5"></path><path d="M1589.86 509.36L1589.86 509.36" stroke="rgba(219, 180, 101, 1)" stroke-width="1.5"></path><path d="M1589.86 509.36L1423.16 647.74" stroke="rgba(219, 180, 101, 1)" stroke-width="1.5"></path><path d="M1553.9 829.34L1553.9 829.34" stroke="rgba(219, 180, 101, 1)" stroke-width="1.5"></path><path d="M1553.9 829.34L1586.44 999.6" stroke="rgba(219, 180, 101, 1)" stroke-width="1.5"></path><path d="M1553.9 829.34L1423.16 647.74" stroke="rgba(219, 180, 101, 1)" stroke-width="1.5"></path><path d="M1586.44 999.6L1586.44 999.6" stroke="rgba(219, 180, 101, 1)" stroke-width="1.5"></path><path d="M1586.44 999.6L1425.04 789.55" stroke="rgba(219, 180, 101, 1)" stroke-width="1.5"></path><path d="M1586.44 999.6L1300.81 976.75" stroke="rgba(219, 180, 101, 1)" stroke-width="1.5"></path><path d="M1586.44 999.6L1245.71 820.82" stroke="rgba(219, 180, 101, 1)" stroke-width="1.5"></path><circle r="5" cx="-68.02" cy="502.46" fill="rgba(219, 180, 101, 1)"></circle><circle r="5" cx="-66.33" cy="676.02" fill="rgba(219, 180, 101, 1)"></circle><circle r="5" cx="-104.36" cy="838.41" fill="rgba(219, 180, 101, 1)"></circle><circle r="5" cx="-101.57" cy="953.94" fill="rgba(219, 180, 101, 1)"></circle><circle r="5" cx="49.95" cy="511.66" fill="rgba(219, 180, 101, 1)"></circle><circle r="5" cx="78.86" cy="696.75" fill="rgba(219, 180, 101, 1)"></circle><circle r="5" cx="74.44" cy="801.24" fill="rgba(219, 180, 101, 1)"></circle><circle r="5" cx="255.92" cy="532.81" fill="rgba(219, 180, 101, 1)"></circle><circle r="5" cx="189.47" cy="683.03" fill="rgba(219, 180, 101, 1)"></circle><circle r="5" cx="195.49" cy="804.24" fill="rgba(219, 180, 101, 1)"></circle><circle r="5" cx="372.56" cy="562.03" fill="rgba(219, 180, 101, 1)"></circle><circle r="5" cx="370.67" cy="677.05" fill="rgba(219, 180, 101, 1)"></circle><circle r="5" cx="364.9" cy="797.75" fill="rgba(219, 180, 101, 1)"></circle><circle r="5" cx="554.03" cy="400.93" fill="rgba(219, 180, 101, 1)"></circle><circle r="5" cx="529.99" cy="552.37" fill="rgba(219, 180, 101, 1)"></circle><circle r="5" cx="490.18" cy="645.56" fill="rgba(219, 180, 101, 1)"></circle><circle r="5" cx="690.59" cy="346.56" fill="rgba(219, 180, 101, 1)"></circle><circle r="5" cx="692.36" cy="508.5" fill="rgba(219, 180, 101, 1)"></circle><circle r="5" cx="653.2" cy="698.26" fill="rgba(219, 180, 101, 1)"></circle><circle r="5" cx="670.8" cy="833.07" fill="rgba(219, 180, 101, 1)"></circle><circle r="5" cx="683.26" cy="1008.15" fill="rgba(219, 180, 101, 1)"></circle><circle r="5" cx="804.27" cy="228.67" fill="rgba(219, 180, 101, 1)"></circle><circle r="5" cx="800.32" cy="344.76" fill="rgba(219, 180, 101, 1)"></circle><circle r="5" cx="808.31" cy="514.11" fill="rgba(219, 180, 101, 1)"></circle><circle r="5" cx="862.23" cy="973.77" fill="rgba(219, 180, 101, 1)"></circle><circle r="5" cx="983.08" cy="-47.42" fill="rgba(219, 180, 101, 1)"></circle><circle r="5" cx="998.14" cy="84.22" fill="rgba(219, 180, 101, 1)"></circle><circle r="5" cx="954.69" cy="201.04" fill="rgba(219, 180, 101, 1)"></circle><circle r="5" cx="964.89" cy="395.03" fill="rgba(219, 180, 101, 1)"></circle><circle r="5" cx="967.31" cy="508.69" fill="rgba(219, 180, 101, 1)"></circle><circle r="5" cx="975.68" cy="638.76" fill="rgba(219, 180, 101, 1)"></circle><circle r="5" cx="991.08" cy="812.14" fill="rgba(219, 180, 101, 1)"></circle><circle r="5" cx="984.71" cy="975.9" fill="rgba(219, 180, 101, 1)"></circle><circle r="5" cx="1105.99" cy="-55.3" fill="rgba(219, 180, 101, 1)"></circle><circle r="5" cx="1121.65" cy="64.77" fill="rgba(219, 180, 101, 1)"></circle><circle r="5" cx="1088.94" cy="348.29" fill="rgba(219, 180, 101, 1)"></circle><circle r="5" cx="1127.64" cy="561.19" fill="rgba(219, 180, 101, 1)"></circle><circle r="5" cx="1144.28" cy="687.82" fill="rgba(219, 180, 101, 1)"></circle><circle r="5" cx="1160.19" cy="795.13" fill="rgba(219, 180, 101, 1)"></circle><circle r="5" cx="1154.64" cy="947.74" fill="rgba(219, 180, 101, 1)"></circle><circle r="5" cx="1311.37" cy="-49.52" fill="rgba(219, 180, 101, 1)"></circle><circle r="5" cx="1257.13" cy="96.89" fill="rgba(219, 180, 101, 1)"></circle><circle r="5" cx="1254.43" cy="195.5" fill="rgba(219, 180, 101, 1)"></circle><circle r="5" cx="1309.24" cy="386.17" fill="rgba(219, 180, 101, 1)"></circle><circle r="5" cx="1259.97" cy="509.29" fill="rgba(219, 180, 101, 1)"></circle><circle r="5" cx="1269.82" cy="642.66" fill="rgba(219, 180, 101, 1)"></circle><circle r="5" cx="1245.71" cy="820.82" fill="rgba(219, 180, 101, 1)"></circle><circle r="5" cx="1300.81" cy="976.75" fill="rgba(219, 180, 101, 1)"></circle><circle r="5" cx="1408.53" cy="-90.94" fill="rgba(219, 180, 101, 1)"></circle><circle r="5" cx="1399.04" cy="72.78" fill="rgba(219, 180, 101, 1)"></circle><circle r="5" cx="1410.43" cy="358.48" fill="rgba(219, 180, 101, 1)"></circle><circle r="5" cx="1394.67" cy="543.6" fill="rgba(219, 180, 101, 1)"></circle><circle r="5" cx="1423.16" cy="647.74" fill="rgba(219, 180, 101, 1)"></circle><circle r="5" cx="1425.04" cy="789.55" fill="rgba(219, 180, 101, 1)"></circle><circle r="5" cx="1395.59" cy="946.74" fill="rgba(219, 180, 101, 1)"></circle><circle r="5" cx="1592.63" cy="-99.83" fill="rgba(219, 180, 101, 1)"></circle><circle r="5" cx="1577.66" cy="46.28" fill="rgba(219, 180, 101, 1)"></circle><circle r="5" cx="1541.46" cy="212.37" fill="rgba(219, 180, 101, 1)"></circle><circle r="5" cx="1589.86" cy="509.36" fill="rgba(219, 180, 101, 1)"></circle><circle r="5" cx="1553.9" cy="829.34" fill="rgba(219, 180, 101, 1)"></circle><circle r="5" cx="1586.44" cy="999.6" fill="rgba(219, 180, 101, 1)"></circle><path d="M-91.03 949.35L-91.03 949.35" stroke="hsl(208, 77.5%, 66.5%)" stroke-width="1.5"></path><path d="M-91.03 949.35L-111.73 853.64" stroke="hsl(208, 77.5%, 66.5%)" stroke-width="1.5"></path><path d="M-91.03 949.35L51.47 966.5" stroke="hsl(208, 77.5%, 66.5%)" stroke-width="1.5"></path><path d="M-91.03 949.35L100.8 836.7" stroke="hsl(208, 77.5%, 66.5%)" stroke-width="1.5"></path><path d="M-91.03 949.35L-91.26 685.36" stroke="hsl(208, 77.5%, 66.5%)" stroke-width="1.5"></path><path d="M-91.03 949.35L216.82 988.57" stroke="hsl(208, 77.5%, 66.5%)" stroke-width="1.5"></path><path d="M248.47 801.76L248.47 801.76" stroke="hsl(208, 77.5%, 66.5%)" stroke-width="1.5"></path><path d="M248.47 801.76L339.86 823.14" stroke="hsl(208, 77.5%, 66.5%)" stroke-width="1.5"></path><path d="M248.47 801.76L231.9 681.89" stroke="hsl(208, 77.5%, 66.5%)" stroke-width="1.5"></path><path d="M248.47 801.76L100.8 836.7" stroke="hsl(208, 77.5%, 66.5%)" stroke-width="1.5"></path><path d="M382.45 659.15L382.45 659.15" stroke="hsl(208, 77.5%, 66.5%)" stroke-width="1.5"></path><path d="M382.45 659.15L231.9 681.89" stroke="hsl(208, 77.5%, 66.5%)" stroke-width="1.5"></path><path d="M382.45 659.15L539.52 699.88" stroke="hsl(208, 77.5%, 66.5%)" stroke-width="1.5"></path><path d="M382.45 659.15L339.86 823.14" stroke="hsl(208, 77.5%, 66.5%)" stroke-width="1.5"></path><path d="M382.45 659.15L248.47 801.76" stroke="hsl(208, 77.5%, 66.5%)" stroke-width="1.5"></path><path d="M955.68 390.59L955.68 390.59" stroke="hsl(208, 77.5%, 66.5%)" stroke-width="1.5"></path><path d="M955.68 390.59L1100.89 377.82" stroke="hsl(208, 77.5%, 66.5%)" stroke-width="1.5"></path><path d="M985.12 540.48L985.12 540.48" stroke="hsl(208, 77.5%, 66.5%)" stroke-width="1.5"></path><path d="M985.12 540.48L960.84 684.68" stroke="hsl(208, 77.5%, 66.5%)" stroke-width="1.5"></path><path d="M985.12 540.48L834.32 561.96" stroke="hsl(208, 77.5%, 66.5%)" stroke-width="1.5"></path><path d="M985.12 540.48L955.68 390.59" stroke="hsl(208, 77.5%, 66.5%)" stroke-width="1.5"></path><path d="M976.32 816.24L976.32 816.24" stroke="hsl(208, 77.5%, 66.5%)" stroke-width="1.5"></path><path d="M976.32 816.24L1091.38 844.28" stroke="hsl(208, 77.5%, 66.5%)" stroke-width="1.5"></path><path d="M976.32 816.24L960.84 684.68" stroke="hsl(208, 77.5%, 66.5%)" stroke-width="1.5"></path><path d="M1142.88 549.61L1142.88 549.61" stroke="hsl(208, 77.5%, 66.5%)" stroke-width="1.5"></path><path d="M1142.88 549.61L1243.12 519.39" stroke="hsl(208, 77.5%, 66.5%)" stroke-width="1.5"></path><path d="M1107.85 694.29L1107.85 694.29" stroke="hsl(208, 77.5%, 66.5%)" stroke-width="1.5"></path><path d="M1107.85 694.29L960.84 684.68" stroke="hsl(208, 77.5%, 66.5%)" stroke-width="1.5"></path><path d="M1107.85 694.29L1142.88 549.61" stroke="hsl(208, 77.5%, 66.5%)" stroke-width="1.5"></path><path d="M1107.85 694.29L1091.38 844.28" stroke="hsl(208, 77.5%, 66.5%)" stroke-width="1.5"></path><path d="M1107.85 694.29L976.32 816.24" stroke="hsl(208, 77.5%, 66.5%)" stroke-width="1.5"></path><path d="M1107.85 694.29L1292.88 638.83" stroke="hsl(208, 77.5%, 66.5%)" stroke-width="1.5"></path><path d="M1269.42 225.64L1269.42 225.64" stroke="hsl(208, 77.5%, 66.5%)" stroke-width="1.5"></path><path d="M1269.42 225.64L1298.64 87.32" stroke="hsl(208, 77.5%, 66.5%)" stroke-width="1.5"></path><path d="M1269.42 225.64L1411.51 255.77" stroke="hsl(208, 77.5%, 66.5%)" stroke-width="1.5"></path><path d="M1269.42 225.64L1239.65 394.29" stroke="hsl(208, 77.5%, 66.5%)" stroke-width="1.5"></path><path d="M1570.7 214.89L1570.7 214.89" stroke="hsl(208, 77.5%, 66.5%)" stroke-width="1.5"></path><path d="M1570.7 214.89L1543.57 363.2" stroke="hsl(208, 77.5%, 66.5%)" stroke-width="1.5"></path><path d="M1570.7 214.89L1411.51 255.77" stroke="hsl(208, 77.5%, 66.5%)" stroke-width="1.5"></path><path d="M1570.7 214.89L1585.24 46.1" stroke="hsl(208, 77.5%, 66.5%)" stroke-width="1.5"></path><path d="M1570.7 214.89L1448.21 95.32" stroke="hsl(208, 77.5%, 66.5%)" stroke-width="1.5"></path><path d="M1587.87 505.12L1587.87 505.12" stroke="hsl(208, 77.5%, 66.5%)" stroke-width="1.5"></path><path d="M1587.87 505.12L1543.57 363.2" stroke="hsl(208, 77.5%, 66.5%)" stroke-width="1.5"></path><path d="M1587.87 505.12L1563.17 680.57" stroke="hsl(208, 77.5%, 66.5%)" stroke-width="1.5"></path><path d="M1587.87 505.12L1423.46 351.68" stroke="hsl(208, 77.5%, 66.5%)" stroke-width="1.5"></path><path d="M1546.29 1000.38L1546.29 1000.38" stroke="hsl(208, 77.5%, 66.5%)" stroke-width="1.5"></path><path d="M1546.29 1000.38L1421.33 945.26" stroke="hsl(208, 77.5%, 66.5%)" stroke-width="1.5"></path><path d="M1546.29 1000.38L1391.51 833.96" stroke="hsl(208, 77.5%, 66.5%)" stroke-width="1.5"></path><path d="M1546.29 1000.38L1255.9 940.58" stroke="hsl(208, 77.5%, 66.5%)" stroke-width="1.5"></path><path d="M-91.26 685.36L-91.26 685.36" stroke="hsl(208, 77.5%, 66.5%)" stroke-width="1.5"></path><path d="M-91.26 685.36L-111.73 853.64" stroke="hsl(208, 77.5%, 66.5%)" stroke-width="1.5"></path><path d="M-91.26 685.36L90.33 673.73" stroke="hsl(208, 77.5%, 66.5%)" stroke-width="1.5"></path><path d="M-111.73 853.64L-111.73 853.64" stroke="hsl(208, 77.5%, 66.5%)" stroke-width="1.5"></path><path d="M90.33 673.73L90.33 673.73" stroke="hsl(208, 77.5%, 66.5%)" stroke-width="1.5"></path><path d="M90.33 673.73L231.9 681.89" stroke="hsl(208, 77.5%, 66.5%)" stroke-width="1.5"></path><path d="M90.33 673.73L100.8 836.7" stroke="hsl(208, 77.5%, 66.5%)" stroke-width="1.5"></path><path d="M100.8 836.7L100.8 836.7" stroke="hsl(208, 77.5%, 66.5%)" stroke-width="1.5"></path><path d="M100.8 836.7L51.47 966.5" stroke="hsl(208, 77.5%, 66.5%)" stroke-width="1.5"></path><path d="M51.47 966.5L51.47 966.5" stroke="hsl(208, 77.5%, 66.5%)" stroke-width="1.5"></path><path d="M51.47 966.5L216.82 988.57" stroke="hsl(208, 77.5%, 66.5%)" stroke-width="1.5"></path><path d="M51.47 966.5L-111.73 853.64" stroke="hsl(208, 77.5%, 66.5%)" stroke-width="1.5"></path><path d="M231.9 681.89L231.9 681.89" stroke="hsl(208, 77.5%, 66.5%)" stroke-width="1.5"></path><path d="M216.82 988.57L216.82 988.57" stroke="hsl(208, 77.5%, 66.5%)" stroke-width="1.5"></path><path d="M216.82 988.57L372.62 972.11" stroke="hsl(208, 77.5%, 66.5%)" stroke-width="1.5"></path><path d="M339.86 823.14L339.86 823.14" stroke="hsl(208, 77.5%, 66.5%)" stroke-width="1.5"></path><path d="M339.86 823.14L372.62 972.11" stroke="hsl(208, 77.5%, 66.5%)" stroke-width="1.5"></path><path d="M339.86 823.14L504.73 812.13" stroke="hsl(208, 77.5%, 66.5%)" stroke-width="1.5"></path><path d="M372.62 972.11L372.62 972.11" stroke="hsl(208, 77.5%, 66.5%)" stroke-width="1.5"></path><path d="M372.62 972.11L553.92 941.65" stroke="hsl(208, 77.5%, 66.5%)" stroke-width="1.5"></path><path d="M372.62 972.11L504.73 812.13" stroke="hsl(208, 77.5%, 66.5%)" stroke-width="1.5"></path><path d="M372.62 972.11L248.47 801.76" stroke="hsl(208, 77.5%, 66.5%)" stroke-width="1.5"></path><path d="M372.62 972.11L100.8 836.7" stroke="hsl(208, 77.5%, 66.5%)" stroke-width="1.5"></path><path d="M539.52 699.88L539.52 699.88" stroke="hsl(208, 77.5%, 66.5%)" stroke-width="1.5"></path><path d="M539.52 699.88L504.73 812.13" stroke="hsl(208, 77.5%, 66.5%)" stroke-width="1.5"></path><path d="M539.52 699.88L699.61 706.87" stroke="hsl(208, 77.5%, 66.5%)" stroke-width="1.5"></path><path d="M539.52 699.88L700.75 848.22" stroke="hsl(208, 77.5%, 66.5%)" stroke-width="1.5"></path><path d="M539.52 699.88L696.32 537.41" stroke="hsl(208, 77.5%, 66.5%)" stroke-width="1.5"></path><path d="M504.73 812.13L504.73 812.13" stroke="hsl(208, 77.5%, 66.5%)" stroke-width="1.5"></path><path d="M504.73 812.13L553.92 941.65" stroke="hsl(208, 77.5%, 66.5%)" stroke-width="1.5"></path><path d="M553.92 941.65L553.92 941.65" stroke="hsl(208, 77.5%, 66.5%)" stroke-width="1.5"></path><path d="M553.92 941.65L680.79 992.29" stroke="hsl(208, 77.5%, 66.5%)" stroke-width="1.5"></path><path d="M553.92 941.65L700.75 848.22" stroke="hsl(208, 77.5%, 66.5%)" stroke-width="1.5"></path><path d="M696.32 537.41L696.32 537.41" stroke="hsl(208, 77.5%, 66.5%)" stroke-width="1.5"></path><path d="M696.32 537.41L834.32 561.96" stroke="hsl(208, 77.5%, 66.5%)" stroke-width="1.5"></path><path d="M696.32 537.41L807.82 642.92" stroke="hsl(208, 77.5%, 66.5%)" stroke-width="1.5"></path><path d="M696.32 537.41L699.61 706.87" stroke="hsl(208, 77.5%, 66.5%)" stroke-width="1.5"></path><path d="M696.32 537.41L985.12 540.48" stroke="hsl(208, 77.5%, 66.5%)" stroke-width="1.5"></path><path d="M699.61 706.87L699.61 706.87" stroke="hsl(208, 77.5%, 66.5%)" stroke-width="1.5"></path><path d="M699.61 706.87L807.82 642.92" stroke="hsl(208, 77.5%, 66.5%)" stroke-width="1.5"></path><path d="M699.61 706.87L700.75 848.22" stroke="hsl(208, 77.5%, 66.5%)" stroke-width="1.5"></path><path d="M699.61 706.87L803.87 826.58" stroke="hsl(208, 77.5%, 66.5%)" stroke-width="1.5"></path><path d="M700.75 848.22L700.75 848.22" stroke="hsl(208, 77.5%, 66.5%)" stroke-width="1.5"></path><path d="M700.75 848.22L803.87 826.58" stroke="hsl(208, 77.5%, 66.5%)" stroke-width="1.5"></path><path d="M680.79 992.29L680.79 992.29" stroke="hsl(208, 77.5%, 66.5%)" stroke-width="1.5"></path><path d="M680.79 992.29L700.75 848.22" stroke="hsl(208, 77.5%, 66.5%)" stroke-width="1.5"></path><path d="M680.79 992.29L830.71 975.17" stroke="hsl(208, 77.5%, 66.5%)" stroke-width="1.5"></path><path d="M680.79 992.29L803.87 826.58" stroke="hsl(208, 77.5%, 66.5%)" stroke-width="1.5"></path><path d="M680.79 992.29L504.73 812.13" stroke="hsl(208, 77.5%, 66.5%)" stroke-width="1.5"></path><path d="M680.79 992.29L956.05 953.8" stroke="hsl(208, 77.5%, 66.5%)" stroke-width="1.5"></path><path d="M834.32 561.96L834.32 561.96" stroke="hsl(208, 77.5%, 66.5%)" stroke-width="1.5"></path><path d="M834.32 561.96L807.82 642.92" stroke="hsl(208, 77.5%, 66.5%)" stroke-width="1.5"></path><path d="M834.32 561.96L960.84 684.68" stroke="hsl(208, 77.5%, 66.5%)" stroke-width="1.5"></path><path d="M834.32 561.96L699.61 706.87" stroke="hsl(208, 77.5%, 66.5%)" stroke-width="1.5"></path><path d="M834.32 561.96L955.68 390.59" stroke="hsl(208, 77.5%, 66.5%)" stroke-width="1.5"></path><path d="M807.82 642.92L807.82 642.92" stroke="hsl(208, 77.5%, 66.5%)" stroke-width="1.5"></path><path d="M803.87 826.58L803.87 826.58" stroke="hsl(208, 77.5%, 66.5%)" stroke-width="1.5"></path><path d="M803.87 826.58L830.71 975.17" stroke="hsl(208, 77.5%, 66.5%)" stroke-width="1.5"></path><path d="M803.87 826.58L976.32 816.24" stroke="hsl(208, 77.5%, 66.5%)" stroke-width="1.5"></path><path d="M830.71 975.17L830.71 975.17" stroke="hsl(208, 77.5%, 66.5%)" stroke-width="1.5"></path><path d="M830.71 975.17L956.05 953.8" stroke="hsl(208, 77.5%, 66.5%)" stroke-width="1.5"></path><path d="M830.71 975.17L700.75 848.22" stroke="hsl(208, 77.5%, 66.5%)" stroke-width="1.5"></path><path d="M960.84 684.68L960.84 684.68" stroke="hsl(208, 77.5%, 66.5%)" stroke-width="1.5"></path><path d="M960.84 684.68L807.82 642.92" stroke="hsl(208, 77.5%, 66.5%)" stroke-width="1.5"></path><path d="M960.84 684.68L1091.38 844.28" stroke="hsl(208, 77.5%, 66.5%)" stroke-width="1.5"></path><path d="M956.05 953.8L956.05 953.8" stroke="hsl(208, 77.5%, 66.5%)" stroke-width="1.5"></path><path d="M956.05 953.8L976.32 816.24" stroke="hsl(208, 77.5%, 66.5%)" stroke-width="1.5"></path><path d="M956.05 953.8L1123.13 971.96" stroke="hsl(208, 77.5%, 66.5%)" stroke-width="1.5"></path><path d="M956.05 953.8L1091.38 844.28" stroke="hsl(208, 77.5%, 66.5%)" stroke-width="1.5"></path><path d="M956.05 953.8L803.87 826.58" stroke="hsl(208, 77.5%, 66.5%)" stroke-width="1.5"></path><path d="M956.05 953.8L960.84 684.68" stroke="hsl(208, 77.5%, 66.5%)" stroke-width="1.5"></path><path d="M1088.74 256.65L1088.74 256.65" stroke="hsl(208, 77.5%, 66.5%)" stroke-width="1.5"></path><path d="M1088.74 256.65L1100.89 377.82" stroke="hsl(208, 77.5%, 66.5%)" stroke-width="1.5"></path><path d="M1088.74 256.65L1269.42 225.64" stroke="hsl(208, 77.5%, 66.5%)" stroke-width="1.5"></path><path d="M1088.74 256.65L955.68 390.59" stroke="hsl(208, 77.5%, 66.5%)" stroke-width="1.5"></path><path d="M1100.89 377.82L1100.89 377.82" stroke="hsl(208, 77.5%, 66.5%)" stroke-width="1.5"></path><path d="M1100.89 377.82L1239.65 394.29" stroke="hsl(208, 77.5%, 66.5%)" stroke-width="1.5"></path><path d="M1091.38 844.28L1091.38 844.28" stroke="hsl(208, 77.5%, 66.5%)" stroke-width="1.5"></path><path d="M1091.38 844.28L1123.13 971.96" stroke="hsl(208, 77.5%, 66.5%)" stroke-width="1.5"></path><path d="M1091.38 844.28L1259.83 834.35" stroke="hsl(208, 77.5%, 66.5%)" stroke-width="1.5"></path><path d="M1091.38 844.28L1255.9 940.58" stroke="hsl(208, 77.5%, 66.5%)" stroke-width="1.5"></path><path d="M1123.13 971.96L1123.13 971.96" stroke="hsl(208, 77.5%, 66.5%)" stroke-width="1.5"></path><path d="M1123.13 971.96L1255.9 940.58" stroke="hsl(208, 77.5%, 66.5%)" stroke-width="1.5"></path><path d="M1240.56 -97.6L1240.56 -97.6" stroke="hsl(208, 77.5%, 66.5%)" stroke-width="1.5"></path><path d="M1240.56 -97.6L1298.64 87.32" stroke="hsl(208, 77.5%, 66.5%)" stroke-width="1.5"></path><path d="M1240.56 -97.6L1452.66 -92.37" stroke="hsl(208, 77.5%, 66.5%)" stroke-width="1.5"></path><path d="M1240.56 -97.6L1448.21 95.32" stroke="hsl(208, 77.5%, 66.5%)" stroke-width="1.5"></path><path d="M1240.56 -97.6L1269.42 225.64" stroke="hsl(208, 77.5%, 66.5%)" stroke-width="1.5"></path><path d="M1240.56 -97.6L1585.24 46.1" stroke="hsl(208, 77.5%, 66.5%)" stroke-width="1.5"></path><path d="M1298.64 87.32L1298.64 87.32" stroke="hsl(208, 77.5%, 66.5%)" stroke-width="1.5"></path><path d="M1298.64 87.32L1448.21 95.32" stroke="hsl(208, 77.5%, 66.5%)" stroke-width="1.5"></path><path d="M1298.64 87.32L1411.51 255.77" stroke="hsl(208, 77.5%, 66.5%)" stroke-width="1.5"></path><path d="M1298.64 87.32L1452.66 -92.37" stroke="hsl(208, 77.5%, 66.5%)" stroke-width="1.5"></path><path d="M1298.64 87.32L1088.74 256.65" stroke="hsl(208, 77.5%, 66.5%)" stroke-width="1.5"></path><path d="M1239.65 394.29L1239.65 394.29" stroke="hsl(208, 77.5%, 66.5%)" stroke-width="1.5"></path><path d="M1239.65 394.29L1243.12 519.39" stroke="hsl(208, 77.5%, 66.5%)" stroke-width="1.5"></path><path d="M1243.12 519.39L1243.12 519.39" stroke="hsl(208, 77.5%, 66.5%)" stroke-width="1.5"></path><path d="M1243.12 519.39L1292.88 638.83" stroke="hsl(208, 77.5%, 66.5%)" stroke-width="1.5"></path><path d="M1243.12 519.39L1100.89 377.82" stroke="hsl(208, 77.5%, 66.5%)" stroke-width="1.5"></path><path d="M1292.88 638.83L1292.88 638.83" stroke="hsl(208, 77.5%, 66.5%)" stroke-width="1.5"></path><path d="M1292.88 638.83L1419.43 686.8" stroke="hsl(208, 77.5%, 66.5%)" stroke-width="1.5"></path><path d="M1259.83 834.35L1259.83 834.35" stroke="hsl(208, 77.5%, 66.5%)" stroke-width="1.5"></path><path d="M1259.83 834.35L1255.9 940.58" stroke="hsl(208, 77.5%, 66.5%)" stroke-width="1.5"></path><path d="M1259.83 834.35L1391.51 833.96" stroke="hsl(208, 77.5%, 66.5%)" stroke-width="1.5"></path><path d="M1259.83 834.35L1123.13 971.96" stroke="hsl(208, 77.5%, 66.5%)" stroke-width="1.5"></path><path d="M1255.9 940.58L1255.9 940.58" stroke="hsl(208, 77.5%, 66.5%)" stroke-width="1.5"></path><path d="M1255.9 940.58L1421.33 945.26" stroke="hsl(208, 77.5%, 66.5%)" stroke-width="1.5"></path><path d="M1255.9 940.58L1391.51 833.96" stroke="hsl(208, 77.5%, 66.5%)" stroke-width="1.5"></path><path d="M1255.9 940.58L1107.85 694.29" stroke="hsl(208, 77.5%, 66.5%)" stroke-width="1.5"></path><path d="M1452.66 -92.37L1452.66 -92.37" stroke="hsl(208, 77.5%, 66.5%)" stroke-width="1.5"></path><path d="M1452.66 -92.37L1448.21 95.32" stroke="hsl(208, 77.5%, 66.5%)" stroke-width="1.5"></path><path d="M1452.66 -92.37L1585.24 46.1" stroke="hsl(208, 77.5%, 66.5%)" stroke-width="1.5"></path><path d="M1452.66 -92.37L1570.7 214.89" stroke="hsl(208, 77.5%, 66.5%)" stroke-width="1.5"></path><path d="M1452.66 -92.37L1411.51 255.77" stroke="hsl(208, 77.5%, 66.5%)" stroke-width="1.5"></path><path d="M1448.21 95.32L1448.21 95.32" stroke="hsl(208, 77.5%, 66.5%)" stroke-width="1.5"></path><path d="M1448.21 95.32L1585.24 46.1" stroke="hsl(208, 77.5%, 66.5%)" stroke-width="1.5"></path><path d="M1448.21 95.32L1411.51 255.77" stroke="hsl(208, 77.5%, 66.5%)" stroke-width="1.5"></path><path d="M1411.51 255.77L1411.51 255.77" stroke="hsl(208, 77.5%, 66.5%)" stroke-width="1.5"></path><path d="M1411.51 255.77L1423.46 351.68" stroke="hsl(208, 77.5%, 66.5%)" stroke-width="1.5"></path><path d="M1411.51 255.77L1543.57 363.2" stroke="hsl(208, 77.5%, 66.5%)" stroke-width="1.5"></path><path d="M1423.46 351.68L1423.46 351.68" stroke="hsl(208, 77.5%, 66.5%)" stroke-width="1.5"></path><path d="M1419.43 686.8L1419.43 686.8" stroke="hsl(208, 77.5%, 66.5%)" stroke-width="1.5"></path><path d="M1419.43 686.8L1563.17 680.57" stroke="hsl(208, 77.5%, 66.5%)" stroke-width="1.5"></path><path d="M1419.43 686.8L1391.51 833.96" stroke="hsl(208, 77.5%, 66.5%)" stroke-width="1.5"></path><path d="M1419.43 686.8L1259.83 834.35" stroke="hsl(208, 77.5%, 66.5%)" stroke-width="1.5"></path><path d="M1419.43 686.8L1243.12 519.39" stroke="hsl(208, 77.5%, 66.5%)" stroke-width="1.5"></path><path d="M1391.51 833.96L1391.51 833.96" stroke="hsl(208, 77.5%, 66.5%)" stroke-width="1.5"></path><path d="M1391.51 833.96L1421.33 945.26" stroke="hsl(208, 77.5%, 66.5%)" stroke-width="1.5"></path><path d="M1391.51 833.96L1292.88 638.83" stroke="hsl(208, 77.5%, 66.5%)" stroke-width="1.5"></path><path d="M1421.33 945.26L1421.33 945.26" stroke="hsl(208, 77.5%, 66.5%)" stroke-width="1.5"></path><path d="M1585.24 46.1L1585.24 46.1" stroke="hsl(208, 77.5%, 66.5%)" stroke-width="1.5"></path><path d="M1543.57 363.2L1543.57 363.2" stroke="hsl(208, 77.5%, 66.5%)" stroke-width="1.5"></path><path d="M1543.57 363.2L1423.46 351.68" stroke="hsl(208, 77.5%, 66.5%)" stroke-width="1.5"></path><path d="M1563.17 680.57L1563.17 680.57" stroke="hsl(208, 77.5%, 66.5%)" stroke-width="1.5"></path><path d="M1563.17 680.57L1391.51 833.96" stroke="hsl(208, 77.5%, 66.5%)" stroke-width="1.5"></path><path d="M1563.17 680.57L1292.88 638.83" stroke="hsl(208, 77.5%, 66.5%)" stroke-width="1.5"></path><path d="M1563.17 680.57L1421.33 945.26" stroke="hsl(208, 77.5%, 66.5%)" stroke-width="1.5"></path><circle r="25" cx="-91.03" cy="949.35" fill="url(&quot;#SvgjsRadialGradient1207&quot;)"></circle><circle r="25" cx="248.47" cy="801.76" fill="url(&quot;#SvgjsRadialGradient1207&quot;)"></circle><circle r="25" cx="382.45" cy="659.15" fill="url(&quot;#SvgjsRadialGradient1207&quot;)"></circle><circle r="25" cx="955.68" cy="390.59" fill="url(&quot;#SvgjsRadialGradient1207&quot;)"></circle><circle r="25" cx="985.12" cy="540.48" fill="url(&quot;#SvgjsRadialGradient1207&quot;)"></circle><circle r="25" cx="976.32" cy="816.24" fill="url(&quot;#SvgjsRadialGradient1207&quot;)"></circle><circle r="25" cx="1142.88" cy="549.61" fill="url(&quot;#SvgjsRadialGradient1207&quot;)"></circle><circle r="25" cx="1107.85" cy="694.29" fill="url(&quot;#SvgjsRadialGradient1207&quot;)"></circle><circle r="25" cx="1269.42" cy="225.64" fill="url(&quot;#SvgjsRadialGradient1207&quot;)"></circle><circle r="25" cx="1570.7" cy="214.89" fill="url(&quot;#SvgjsRadialGradient1207&quot;)"></circle><circle r="25" cx="1587.87" cy="505.12" fill="url(&quot;#SvgjsRadialGradient1207&quot;)"></circle><circle r="25" cx="1546.29" cy="1000.38" fill="url(&quot;#SvgjsRadialGradient1207&quot;)"></circle><circle r="5" cx="-91.26" cy="685.36" fill="#91c4f1"></circle><circle r="5" cx="-111.73" cy="853.64" fill="#91c4f1"></circle><circle r="5" cx="90.33" cy="673.73" fill="#91c4f1"></circle><circle r="5" cx="100.8" cy="836.7" fill="#91c4f1"></circle><circle r="5" cx="51.47" cy="966.5" fill="#91c4f1"></circle><circle r="5" cx="231.9" cy="681.89" fill="#91c4f1"></circle><circle r="5" cx="216.82" cy="988.57" fill="#91c4f1"></circle><circle r="5" cx="339.86" cy="823.14" fill="#91c4f1"></circle><circle r="5" cx="372.62" cy="972.11" fill="#91c4f1"></circle><circle r="5" cx="539.52" cy="699.88" fill="#91c4f1"></circle><circle r="5" cx="504.73" cy="812.13" fill="#91c4f1"></circle><circle r="5" cx="553.92" cy="941.65" fill="#91c4f1"></circle><circle r="5" cx="696.32" cy="537.41" fill="#91c4f1"></circle><circle r="5" cx="699.61" cy="706.87" fill="#91c4f1"></circle><circle r="5" cx="700.75" cy="848.22" fill="#91c4f1"></circle><circle r="5" cx="680.79" cy="992.29" fill="#91c4f1"></circle><circle r="5" cx="834.32" cy="561.96" fill="#91c4f1"></circle><circle r="5" cx="807.82" cy="642.92" fill="#91c4f1"></circle><circle r="5" cx="803.87" cy="826.58" fill="#91c4f1"></circle><circle r="5" cx="830.71" cy="975.17" fill="#91c4f1"></circle><circle r="5" cx="960.84" cy="684.68" fill="#91c4f1"></circle><circle r="5" cx="956.05" cy="953.8" fill="#91c4f1"></circle><circle r="5" cx="1088.74" cy="256.65" fill="#91c4f1"></circle><circle r="5" cx="1100.89" cy="377.82" fill="#91c4f1"></circle><circle r="5" cx="1091.38" cy="844.28" fill="#91c4f1"></circle><circle r="5" cx="1123.13" cy="971.96" fill="#91c4f1"></circle><circle r="5" cx="1240.56" cy="-97.6" fill="#91c4f1"></circle><circle r="5" cx="1298.64" cy="87.32" fill="#91c4f1"></circle><circle r="5" cx="1239.65" cy="394.29" fill="#91c4f1"></circle><circle r="5" cx="1243.12" cy="519.39" fill="#91c4f1"></circle><circle r="5" cx="1292.88" cy="638.83" fill="#91c4f1"></circle><circle r="5" cx="1259.83" cy="834.35" fill="#91c4f1"></circle><circle r="5" cx="1255.9" cy="940.58" fill="#91c4f1"></circle><circle r="5" cx="1452.66" cy="-92.37" fill="#91c4f1"></circle><circle r="5" cx="1448.21" cy="95.32" fill="#91c4f1"></circle><circle r="5" cx="1411.51" cy="255.77" fill="#91c4f1"></circle><circle r="5" cx="1423.46" cy="351.68" fill="#91c4f1"></circle><circle r="5" cx="1419.43" cy="686.8" fill="#91c4f1"></circle><circle r="5" cx="1391.51" cy="833.96" fill="#91c4f1"></circle><circle r="5" cx="1421.33" cy="945.26" fill="#91c4f1"></circle><circle r="5" cx="1585.24" cy="46.1" fill="#91c4f1"></circle><circle r="5" cx="1543.57" cy="363.2" fill="#91c4f1"></circle><circle r="5" cx="1563.17" cy="680.57" fill="#91c4f1"></circle></g><defs><mask id="SvgjsMask1206"><rect width="1440" height="800" fill="#ffffff"></rect></mask><radialGradient id="SvgjsRadialGradient1207"><stop stop-color="#ffffff" offset="0.1"></stop><stop stop-color="rgba(34, 137, 227, 1)" offset="0.2"></stop><stop stop-color="rgba(34, 137, 227, 0)" offset="1"></stop></radialGradient></defs></svg>