<svg xmlns="http://www.w3.org/2000/svg" xmlns:xlink="http://www.w3.org/1999/xlink" width="500" zoomAndPan="magnify" viewBox="0 0 375 374.999991" height="500" preserveAspectRatio="xMidYMid meet" version="1.0"><defs><g/><clipPath id="831fee83b4"><path d="M 0 175.144531 L 375 175.144531 L 375 199.855469 L 0 199.855469 Z M 0 175.144531 " clip-rule="nonzero"/></clipPath></defs><g fill="#000000" fill-opacity="1"><g transform="translate(0.445317, 253.57554)"><g><path d="M 85.84375 -109.234375 C 79.914062 -111.554688 73.691406 -112.71875 67.171875 -112.71875 C 54.023438 -112.71875 43.410156 -107.890625 35.328125 -98.234375 C 27.242188 -88.578125 23.203125 -74.441406 23.203125 -55.828125 C 23.203125 -37.222656 27.445312 -24.195312 35.9375 -16.75 C 41.757812 -11.519531 49.847656 -8.90625 60.203125 -8.90625 C 66.828125 -8.90625 73.484375 -9.660156 80.171875 -11.171875 C 86.859375 -12.679688 91.425781 -14.132812 93.875 -15.53125 L 96.3125 -6.984375 C 91.195312 -3.609375 82.238281 -1.28125 69.4375 0 C 65.71875 0.46875 61.789062 0.703125 57.65625 0.703125 C 53.53125 0.703125 48.675781 0.0351562 43.09375 -1.296875 C 37.507812 -2.640625 32.332031 -5.347656 27.5625 -9.421875 C 16.75 -18.609375 11.34375 -33.90625 11.34375 -55.3125 C 11.34375 -76.71875 16.429688 -93.265625 26.609375 -104.953125 C 36.785156 -116.640625 50.015625 -122.484375 66.296875 -122.484375 C 75.367188 -122.484375 83.164062 -120.679688 89.6875 -117.078125 C 92.125 -115.796875 94.039062 -114.398438 95.4375 -112.890625 L 95.4375 -87.59375 L 86.71875 -87.0625 Z M 85.84375 -109.234375 "/></g></g></g><g fill="#000000" fill-opacity="1"><g transform="translate(103.737806, 253.57554)"><g><path d="M 111.140625 -17.09375 L 140.109375 -122.140625 L 151.453125 -122.140625 L 115.6875 0 L 105.046875 0 L 78.6875 -104 L 49.90625 0 L 39.078125 0 L 7.859375 -122.140625 L 18.84375 -122.140625 L 45.359375 -17.625 L 74.15625 -122.140625 L 83.921875 -122.140625 Z M 111.140625 -17.09375 "/></g></g></g><g fill="#000000" fill-opacity="1"><g transform="translate(264.783361, 253.57554)"><g><path d="M 92.125 -105.046875 C 89.101562 -108.066406 83.632812 -110.332031 75.71875 -111.84375 C 72.8125 -112.425781 69.03125 -112.71875 64.375 -112.71875 C 59.726562 -112.71875 54.816406 -111.613281 49.640625 -109.40625 C 44.460938 -107.195312 39.894531 -103.765625 35.9375 -99.109375 C 27.445312 -88.867188 23.203125 -74.441406 23.203125 -55.828125 C 23.203125 -37.222656 27.445312 -24.195312 35.9375 -16.75 C 41.757812 -11.519531 49.46875 -8.90625 59.0625 -8.90625 C 68.65625 -8.90625 77.875 -10.125 86.71875 -12.5625 L 87.59375 -54.09375 L 97.1875 -54.09375 L 97.1875 -6.984375 C 92.070312 -3.722656 82.820312 -1.394531 69.4375 0 C 65.71875 0.46875 61.789062 0.703125 57.65625 0.703125 C 53.53125 0.703125 48.675781 0.0351562 43.09375 -1.296875 C 37.507812 -2.640625 32.332031 -5.347656 27.5625 -9.421875 C 16.75 -18.609375 11.34375 -33.90625 11.34375 -55.3125 C 11.34375 -76.71875 16.457031 -93.265625 26.6875 -104.953125 C 36.925781 -116.640625 50.128906 -122.484375 66.296875 -122.484375 L 71.890625 -122.140625 C 79.210938 -121.441406 84.820312 -120.101562 88.71875 -118.125 C 92.625 -116.144531 95.273438 -114.398438 96.671875 -112.890625 Z M 92.125 -105.046875 "/></g></g></g><g clip-path="url(#831fee83b4)"><path fill="#ffffff" d="M 0 175.144531 L 375.011719 175.144531 L 375.011719 199.855469 L 0 199.855469 Z M 0 175.144531 " fill-opacity="1" fill-rule="nonzero"/></g><g fill="#000000" fill-opacity="1"><g transform="translate(12.658169, 191.27555)"><g><path d="M 4.71875 -3.65625 C 4.5 -3.039062 4.269531 -2.414062 4.03125 -1.78125 C 3.800781 -1.15625 3.585938 -0.546875 3.390625 0.046875 L 2.609375 0.046875 L -0.015625 -7.78125 L 1.140625 -7.78125 L 3.015625 -2.140625 L 4.28125 -5.734375 L 5.171875 -5.734375 L 6.421875 -2.140625 C 6.722656 -3.054688 7.035156 -4.003906 7.359375 -4.984375 C 7.691406 -5.972656 8 -6.90625 8.28125 -7.78125 L 9.453125 -7.78125 L 6.859375 0.046875 L 6.078125 0.046875 Z M 4.71875 -3.65625 "/></g></g></g><g fill="#000000" fill-opacity="1"><g transform="translate(30.416546, 191.27555)"><g><path d="M 5.640625 -1.109375 L 5.640625 0 L 0.953125 0 L 0.953125 -7.78125 L 5.625 -7.78125 L 5.625 -6.671875 L 2.0625 -6.671875 L 2.0625 -4.5 L 5.5625 -4.5 L 5.5625 -3.375 L 2.0625 -3.375 L 2.0625 -1.109375 Z M 5.640625 -1.109375 "/></g></g></g><g fill="#000000" fill-opacity="1"><g transform="translate(44.921231, 191.27555)"><g><path d="M 4.140625 -7.78125 C 4.566406 -7.78125 4.9375 -7.679688 5.25 -7.484375 C 5.5625 -7.285156 5.800781 -7.03125 5.96875 -6.71875 C 6.132812 -6.414062 6.21875 -6.09375 6.21875 -5.75 C 6.21875 -5.46875 6.15625 -5.191406 6.03125 -4.921875 C 5.914062 -4.660156 5.722656 -4.429688 5.453125 -4.234375 C 5.890625 -4.046875 6.195312 -3.769531 6.375 -3.40625 C 6.5625 -3.050781 6.65625 -2.691406 6.65625 -2.328125 C 6.65625 -1.941406 6.570312 -1.570312 6.40625 -1.21875 C 6.238281 -0.863281 5.988281 -0.570312 5.65625 -0.34375 C 5.320312 -0.113281 4.910156 0 4.421875 0 L 0.953125 0 L 0.953125 -7.78125 Z M 4.125 -4.625 C 4.4375 -4.625 4.671875 -4.738281 4.828125 -4.96875 C 4.992188 -5.195312 5.078125 -5.441406 5.078125 -5.703125 C 5.078125 -5.960938 5 -6.195312 4.84375 -6.40625 C 4.695312 -6.613281 4.460938 -6.71875 4.140625 -6.71875 L 2.046875 -6.71875 L 2.046875 -4.625 Z M 4.421875 -1.078125 C 4.671875 -1.078125 4.878906 -1.132812 5.046875 -1.25 C 5.210938 -1.375 5.335938 -1.53125 5.421875 -1.71875 C 5.503906 -1.914062 5.546875 -2.113281 5.546875 -2.3125 C 5.546875 -2.519531 5.503906 -2.710938 5.421875 -2.890625 C 5.335938 -3.078125 5.210938 -3.226562 5.046875 -3.34375 C 4.878906 -3.46875 4.671875 -3.53125 4.421875 -3.53125 L 2.046875 -3.53125 L 2.046875 -1.078125 Z M 4.421875 -1.078125 "/></g></g></g><g fill="#000000" fill-opacity="1"><g transform="translate(60.349259, 191.27555)"><g/></g></g><g fill="#000000" fill-opacity="1"><g transform="translate(71.457337, 191.27555)"><g><path d="M 6.03125 -0.015625 L 5.15625 -0.984375 C 4.875 -0.648438 4.5625 -0.382812 4.21875 -0.1875 C 3.875 0 3.460938 0.09375 2.984375 0.09375 C 2.546875 0.09375 2.128906 0.00390625 1.734375 -0.171875 C 1.347656 -0.359375 1.035156 -0.617188 0.796875 -0.953125 C 0.554688 -1.285156 0.4375 -1.6875 0.4375 -2.15625 C 0.4375 -2.519531 0.515625 -2.832031 0.671875 -3.09375 C 0.828125 -3.351562 1.023438 -3.582031 1.265625 -3.78125 C 1.515625 -3.976562 1.769531 -4.160156 2.03125 -4.328125 C 1.832031 -4.554688 1.660156 -4.796875 1.515625 -5.046875 C 1.378906 -5.304688 1.3125 -5.597656 1.3125 -5.921875 C 1.3125 -6.316406 1.410156 -6.648438 1.609375 -6.921875 C 1.804688 -7.203125 2.0625 -7.414062 2.375 -7.5625 C 2.6875 -7.707031 3.015625 -7.78125 3.359375 -7.78125 C 3.679688 -7.78125 3.984375 -7.707031 4.265625 -7.5625 C 4.554688 -7.414062 4.789062 -7.207031 4.96875 -6.9375 C 5.144531 -6.675781 5.234375 -6.367188 5.234375 -6.015625 C 5.234375 -5.679688 5.164062 -5.394531 5.03125 -5.15625 C 4.90625 -4.925781 4.734375 -4.722656 4.515625 -4.546875 C 4.304688 -4.378906 4.082031 -4.234375 3.84375 -4.109375 L 5.09375 -2.796875 L 5.59375 -3.65625 L 6.5625 -3.171875 L 5.828125 -1.9375 L 7.1875 -0.4375 L 7.1875 -0.015625 Z M 3.328125 -6.75 C 3.097656 -6.75 2.894531 -6.671875 2.71875 -6.515625 C 2.550781 -6.359375 2.46875 -6.164062 2.46875 -5.9375 C 2.46875 -5.757812 2.53125 -5.5625 2.65625 -5.34375 C 2.78125 -5.132812 2.914062 -4.945312 3.0625 -4.78125 C 3.226562 -4.875 3.390625 -4.976562 3.546875 -5.09375 C 3.710938 -5.207031 3.851562 -5.335938 3.96875 -5.484375 C 4.082031 -5.640625 4.140625 -5.8125 4.140625 -6 C 4.140625 -6.207031 4.0625 -6.382812 3.90625 -6.53125 C 3.75 -6.675781 3.554688 -6.75 3.328125 -6.75 Z M 2.765625 -3.578125 C 2.597656 -3.472656 2.421875 -3.347656 2.234375 -3.203125 C 2.046875 -3.054688 1.882812 -2.894531 1.75 -2.71875 C 1.613281 -2.550781 1.546875 -2.367188 1.546875 -2.171875 C 1.546875 -1.921875 1.617188 -1.707031 1.765625 -1.53125 C 1.921875 -1.363281 2.113281 -1.226562 2.34375 -1.125 C 2.582031 -1.03125 2.828125 -0.984375 3.078125 -0.984375 C 3.367188 -0.984375 3.625 -1.0625 3.84375 -1.21875 C 4.070312 -1.375 4.28125 -1.566406 4.46875 -1.796875 Z M 2.765625 -3.578125 "/></g></g></g><g fill="#000000" fill-opacity="1"><g transform="translate(86.874381, 191.27555)"><g/></g></g><g fill="#000000" fill-opacity="1"><g transform="translate(97.982463, 191.27555)"><g><path d="M 4.796875 -5.703125 C 4.742188 -5.929688 4.632812 -6.117188 4.46875 -6.265625 C 4.3125 -6.410156 4.125 -6.515625 3.90625 -6.578125 C 3.695312 -6.648438 3.476562 -6.6875 3.25 -6.6875 C 2.988281 -6.6875 2.722656 -6.640625 2.453125 -6.546875 C 2.191406 -6.453125 1.984375 -6.304688 1.828125 -6.109375 C 1.765625 -6.023438 1.71875 -5.929688 1.6875 -5.828125 C 1.65625 -5.722656 1.640625 -5.613281 1.640625 -5.5 C 1.640625 -5.207031 1.722656 -4.988281 1.890625 -4.84375 C 2.066406 -4.695312 2.285156 -4.597656 2.546875 -4.546875 C 2.816406 -4.492188 3.097656 -4.453125 3.390625 -4.421875 C 3.648438 -4.390625 3.921875 -4.34375 4.203125 -4.28125 C 4.484375 -4.21875 4.75 -4.128906 5 -4.015625 C 5.25 -3.898438 5.46875 -3.742188 5.65625 -3.546875 C 5.84375 -3.347656 5.972656 -3.09375 6.046875 -2.78125 C 6.085938 -2.601562 6.109375 -2.4375 6.109375 -2.28125 C 6.109375 -1.90625 6.023438 -1.570312 5.859375 -1.28125 C 5.691406 -0.988281 5.46875 -0.738281 5.1875 -0.53125 C 4.914062 -0.332031 4.609375 -0.179688 4.265625 -0.078125 C 3.929688 0.015625 3.59375 0.0625 3.25 0.0625 C 2.957031 0.0625 2.65625 0.0195312 2.34375 -0.0625 C 2.03125 -0.15625 1.738281 -0.285156 1.46875 -0.453125 C 1.195312 -0.628906 0.972656 -0.847656 0.796875 -1.109375 C 0.617188 -1.367188 0.507812 -1.671875 0.46875 -2.015625 L 0.46875 -2.21875 L 1.578125 -2.25 L 1.59375 -2.078125 L 1.59375 -2.125 C 1.625 -1.882812 1.722656 -1.679688 1.890625 -1.515625 C 2.066406 -1.359375 2.28125 -1.238281 2.53125 -1.15625 C 2.78125 -1.070312 3.019531 -1.03125 3.25 -1.03125 C 3.53125 -1.03125 3.800781 -1.078125 4.0625 -1.171875 C 4.332031 -1.273438 4.550781 -1.421875 4.71875 -1.609375 C 4.894531 -1.796875 4.984375 -2.019531 4.984375 -2.28125 C 4.984375 -2.363281 4.972656 -2.453125 4.953125 -2.546875 C 4.910156 -2.742188 4.800781 -2.890625 4.625 -2.984375 C 4.445312 -3.085938 4.238281 -3.160156 4 -3.203125 C 3.757812 -3.253906 3.507812 -3.289062 3.25 -3.3125 C 2.957031 -3.34375 2.65625 -3.390625 2.34375 -3.453125 C 2.03125 -3.515625 1.742188 -3.613281 1.484375 -3.75 C 1.222656 -3.882812 1.003906 -4.078125 0.828125 -4.328125 C 0.660156 -4.578125 0.5625 -4.898438 0.53125 -5.296875 C 0.53125 -5.328125 0.523438 -5.359375 0.515625 -5.390625 C 0.515625 -5.421875 0.515625 -5.453125 0.515625 -5.484375 C 0.515625 -5.953125 0.660156 -6.375 0.953125 -6.75 C 1.203125 -7.09375 1.539062 -7.347656 1.96875 -7.515625 C 2.394531 -7.691406 2.832031 -7.78125 3.28125 -7.78125 C 3.675781 -7.78125 4.0625 -7.707031 4.4375 -7.5625 C 4.8125 -7.414062 5.128906 -7.191406 5.390625 -6.890625 C 5.660156 -6.597656 5.828125 -6.21875 5.890625 -5.75 Z M 4.796875 -5.703125 "/></g></g></g><g fill="#000000" fill-opacity="1"><g transform="translate(112.893861, 191.27555)"><g><path d="M 0.390625 -3.84375 C 0.390625 -4.40625 0.488281 -4.925781 0.6875 -5.40625 C 0.894531 -5.894531 1.179688 -6.320312 1.546875 -6.6875 C 1.910156 -7.050781 2.332031 -7.335938 2.8125 -7.546875 C 3.300781 -7.753906 3.820312 -7.859375 4.375 -7.859375 C 4.9375 -7.859375 5.457031 -7.753906 5.9375 -7.546875 C 6.425781 -7.335938 6.851562 -7.050781 7.21875 -6.6875 C 7.582031 -6.320312 7.863281 -5.894531 8.0625 -5.40625 C 8.269531 -4.925781 8.375 -4.40625 8.375 -3.84375 C 8.375 -3.289062 8.269531 -2.773438 8.0625 -2.296875 C 7.863281 -1.816406 7.582031 -1.390625 7.21875 -1.015625 C 6.851562 -0.648438 6.425781 -0.363281 5.9375 -0.15625 C 5.457031 0.0390625 4.9375 0.140625 4.375 0.140625 C 3.820312 0.140625 3.300781 0.0390625 2.8125 -0.15625 C 2.332031 -0.363281 1.910156 -0.648438 1.546875 -1.015625 C 1.179688 -1.390625 0.894531 -1.816406 0.6875 -2.296875 C 0.488281 -2.773438 0.390625 -3.289062 0.390625 -3.84375 Z M 1.53125 -3.84375 C 1.53125 -3.320312 1.65625 -2.84375 1.90625 -2.40625 C 2.164062 -1.976562 2.507812 -1.632812 2.9375 -1.375 C 3.375 -1.125 3.851562 -1 4.375 -1 C 4.90625 -1 5.382812 -1.125 5.8125 -1.375 C 6.25 -1.632812 6.59375 -1.976562 6.84375 -2.40625 C 7.101562 -2.84375 7.234375 -3.320312 7.234375 -3.84375 C 7.234375 -4.375 7.101562 -4.851562 6.84375 -5.28125 C 6.59375 -5.71875 6.25 -6.0625 5.8125 -6.3125 C 5.382812 -6.570312 4.90625 -6.703125 4.375 -6.703125 C 3.851562 -6.703125 3.375 -6.570312 2.9375 -6.3125 C 2.507812 -6.0625 2.164062 -5.71875 1.90625 -5.28125 C 1.65625 -4.851562 1.53125 -4.375 1.53125 -3.84375 Z M 1.53125 -3.84375 "/></g></g></g><g fill="#000000" fill-opacity="1"><g transform="translate(130.102639, 191.27555)"><g><path d="M 0.953125 0 L 0.953125 -7.765625 L 5.53125 -7.765625 L 5.53125 -6.6875 L 2.0625 -6.6875 L 2.0625 -4.40625 L 5.140625 -4.40625 L 5.140625 -3.375 L 2.0625 -3.375 L 2.0625 0 Z M 0.953125 0 "/></g></g></g><g fill="#000000" fill-opacity="1"><g transform="translate(144.244583, 191.27555)"><g><path d="M 2.390625 -6.71875 L 0.0625 -6.71875 L 0.0625 -7.78125 L 5.828125 -7.78125 L 5.828125 -6.71875 L 3.515625 -6.71875 L 3.515625 0 L 2.390625 0 Z M 2.390625 -6.71875 "/></g></g></g><g fill="#000000" fill-opacity="1"><g transform="translate(158.518431, 191.27555)"><g><path d="M 4.71875 -3.65625 C 4.5 -3.039062 4.269531 -2.414062 4.03125 -1.78125 C 3.800781 -1.15625 3.585938 -0.546875 3.390625 0.046875 L 2.609375 0.046875 L -0.015625 -7.78125 L 1.140625 -7.78125 L 3.015625 -2.140625 L 4.28125 -5.734375 L 5.171875 -5.734375 L 6.421875 -2.140625 C 6.722656 -3.054688 7.035156 -4.003906 7.359375 -4.984375 C 7.691406 -5.972656 8 -6.90625 8.28125 -7.78125 L 9.453125 -7.78125 L 6.859375 0.046875 L 6.078125 0.046875 Z M 4.71875 -3.65625 "/></g></g></g><g fill="#000000" fill-opacity="1"><g transform="translate(176.276811, 191.27555)"><g><path d="M 1.90625 -1.953125 L 1.15625 0 L -0.046875 0 L 3.046875 -7.796875 L 3.859375 -7.796875 L 6.953125 0 L 5.765625 0 L 5.03125 -1.953125 Z M 4.625 -2.984375 L 3.46875 -6.03125 L 2.3125 -2.984375 Z M 4.625 -2.984375 "/></g></g></g><g fill="#000000" fill-opacity="1"><g transform="translate(191.616905, 191.27555)"><g><path d="M 3.75 -3.90625 C 4.0625 -3.90625 4.320312 -3.96875 4.53125 -4.09375 C 4.738281 -4.226562 4.890625 -4.398438 4.984375 -4.609375 C 5.085938 -4.816406 5.140625 -5.03125 5.140625 -5.25 C 5.140625 -5.46875 5.085938 -5.6875 4.984375 -5.90625 C 4.890625 -6.125 4.738281 -6.304688 4.53125 -6.453125 C 4.320312 -6.597656 4.0625 -6.671875 3.75 -6.671875 L 2.046875 -6.671875 L 2.046875 0 L 0.953125 0 L 0.953125 -7.796875 L 3.75 -7.796875 C 4.164062 -7.796875 4.53125 -7.71875 4.84375 -7.5625 C 5.164062 -7.414062 5.429688 -7.21875 5.640625 -6.96875 C 5.847656 -6.726562 6.003906 -6.457031 6.109375 -6.15625 C 6.210938 -5.851562 6.265625 -5.550781 6.265625 -5.25 C 6.265625 -4.882812 6.1875 -4.535156 6.03125 -4.203125 C 5.882812 -3.867188 5.660156 -3.585938 5.359375 -3.359375 C 5.066406 -3.128906 4.703125 -2.972656 4.265625 -2.890625 L 6.703125 0 L 5.265625 0 L 2.453125 -3.375 L 2.453125 -3.90625 Z M 3.75 -3.90625 "/></g></g></g><g fill="#000000" fill-opacity="1"><g transform="translate(206.539291, 191.27555)"><g><path d="M 5.640625 -1.109375 L 5.640625 0 L 0.953125 0 L 0.953125 -7.78125 L 5.625 -7.78125 L 5.625 -6.671875 L 2.0625 -6.671875 L 2.0625 -4.5 L 5.5625 -4.5 L 5.5625 -3.375 L 2.0625 -3.375 L 2.0625 -1.109375 Z M 5.640625 -1.109375 "/></g></g></g><g fill="#000000" fill-opacity="1"><g transform="translate(221.043967, 191.27555)"><g/></g></g><g fill="#000000" fill-opacity="1"><g transform="translate(232.152036, 191.27555)"><g><path d="M 4.796875 -5.703125 C 4.742188 -5.929688 4.632812 -6.117188 4.46875 -6.265625 C 4.3125 -6.410156 4.125 -6.515625 3.90625 -6.578125 C 3.695312 -6.648438 3.476562 -6.6875 3.25 -6.6875 C 2.988281 -6.6875 2.722656 -6.640625 2.453125 -6.546875 C 2.191406 -6.453125 1.984375 -6.304688 1.828125 -6.109375 C 1.765625 -6.023438 1.71875 -5.929688 1.6875 -5.828125 C 1.65625 -5.722656 1.640625 -5.613281 1.640625 -5.5 C 1.640625 -5.207031 1.722656 -4.988281 1.890625 -4.84375 C 2.066406 -4.695312 2.285156 -4.597656 2.546875 -4.546875 C 2.816406 -4.492188 3.097656 -4.453125 3.390625 -4.421875 C 3.648438 -4.390625 3.921875 -4.34375 4.203125 -4.28125 C 4.484375 -4.21875 4.75 -4.128906 5 -4.015625 C 5.25 -3.898438 5.46875 -3.742188 5.65625 -3.546875 C 5.84375 -3.347656 5.972656 -3.09375 6.046875 -2.78125 C 6.085938 -2.601562 6.109375 -2.4375 6.109375 -2.28125 C 6.109375 -1.90625 6.023438 -1.570312 5.859375 -1.28125 C 5.691406 -0.988281 5.46875 -0.738281 5.1875 -0.53125 C 4.914062 -0.332031 4.609375 -0.179688 4.265625 -0.078125 C 3.929688 0.015625 3.59375 0.0625 3.25 0.0625 C 2.957031 0.0625 2.65625 0.0195312 2.34375 -0.0625 C 2.03125 -0.15625 1.738281 -0.285156 1.46875 -0.453125 C 1.195312 -0.628906 0.972656 -0.847656 0.796875 -1.109375 C 0.617188 -1.367188 0.507812 -1.671875 0.46875 -2.015625 L 0.46875 -2.21875 L 1.578125 -2.25 L 1.59375 -2.078125 L 1.59375 -2.125 C 1.625 -1.882812 1.722656 -1.679688 1.890625 -1.515625 C 2.066406 -1.359375 2.28125 -1.238281 2.53125 -1.15625 C 2.78125 -1.070312 3.019531 -1.03125 3.25 -1.03125 C 3.53125 -1.03125 3.800781 -1.078125 4.0625 -1.171875 C 4.332031 -1.273438 4.550781 -1.421875 4.71875 -1.609375 C 4.894531 -1.796875 4.984375 -2.019531 4.984375 -2.28125 C 4.984375 -2.363281 4.972656 -2.453125 4.953125 -2.546875 C 4.910156 -2.742188 4.800781 -2.890625 4.625 -2.984375 C 4.445312 -3.085938 4.238281 -3.160156 4 -3.203125 C 3.757812 -3.253906 3.507812 -3.289062 3.25 -3.3125 C 2.957031 -3.34375 2.65625 -3.390625 2.34375 -3.453125 C 2.03125 -3.515625 1.742188 -3.613281 1.484375 -3.75 C 1.222656 -3.882812 1.003906 -4.078125 0.828125 -4.328125 C 0.660156 -4.578125 0.5625 -4.898438 0.53125 -5.296875 C 0.53125 -5.328125 0.523438 -5.359375 0.515625 -5.390625 C 0.515625 -5.421875 0.515625 -5.453125 0.515625 -5.484375 C 0.515625 -5.953125 0.660156 -6.375 0.953125 -6.75 C 1.203125 -7.09375 1.539062 -7.347656 1.96875 -7.515625 C 2.394531 -7.691406 2.832031 -7.78125 3.28125 -7.78125 C 3.675781 -7.78125 4.0625 -7.707031 4.4375 -7.5625 C 4.8125 -7.414062 5.128906 -7.191406 5.390625 -6.890625 C 5.660156 -6.597656 5.828125 -6.21875 5.890625 -5.75 Z M 4.796875 -5.703125 "/></g></g></g><g fill="#000000" fill-opacity="1"><g transform="translate(247.063435, 191.27555)"><g><path d="M 0.390625 -3.84375 C 0.390625 -4.40625 0.488281 -4.925781 0.6875 -5.40625 C 0.894531 -5.894531 1.179688 -6.320312 1.546875 -6.6875 C 1.910156 -7.050781 2.332031 -7.335938 2.8125 -7.546875 C 3.300781 -7.753906 3.820312 -7.859375 4.375 -7.859375 C 4.9375 -7.859375 5.457031 -7.753906 5.9375 -7.546875 C 6.425781 -7.335938 6.851562 -7.050781 7.21875 -6.6875 C 7.582031 -6.320312 7.863281 -5.894531 8.0625 -5.40625 C 8.269531 -4.925781 8.375 -4.40625 8.375 -3.84375 C 8.375 -3.289062 8.269531 -2.773438 8.0625 -2.296875 C 7.863281 -1.816406 7.582031 -1.390625 7.21875 -1.015625 C 6.851562 -0.648438 6.425781 -0.363281 5.9375 -0.15625 C 5.457031 0.0390625 4.9375 0.140625 4.375 0.140625 C 3.820312 0.140625 3.300781 0.0390625 2.8125 -0.15625 C 2.332031 -0.363281 1.910156 -0.648438 1.546875 -1.015625 C 1.179688 -1.390625 0.894531 -1.816406 0.6875 -2.296875 C 0.488281 -2.773438 0.390625 -3.289062 0.390625 -3.84375 Z M 1.53125 -3.84375 C 1.53125 -3.320312 1.65625 -2.84375 1.90625 -2.40625 C 2.164062 -1.976562 2.507812 -1.632812 2.9375 -1.375 C 3.375 -1.125 3.851562 -1 4.375 -1 C 4.90625 -1 5.382812 -1.125 5.8125 -1.375 C 6.25 -1.632812 6.59375 -1.976562 6.84375 -2.40625 C 7.101562 -2.84375 7.234375 -3.320312 7.234375 -3.84375 C 7.234375 -4.375 7.101562 -4.851562 6.84375 -5.28125 C 6.59375 -5.71875 6.25 -6.0625 5.8125 -6.3125 C 5.382812 -6.570312 4.90625 -6.703125 4.375 -6.703125 C 3.851562 -6.703125 3.375 -6.570312 2.9375 -6.3125 C 2.507812 -6.0625 2.164062 -5.71875 1.90625 -5.28125 C 1.65625 -4.851562 1.53125 -4.375 1.53125 -3.84375 Z M 1.53125 -3.84375 "/></g></g></g><g fill="#000000" fill-opacity="1"><g transform="translate(264.272212, 191.27555)"><g><path d="M 5.671875 -1.109375 L 5.671875 0 L 0.953125 0 L 0.953125 -7.703125 L 2.0625 -7.703125 L 2.0625 -1.109375 Z M 5.671875 -1.109375 "/></g></g></g><g fill="#000000" fill-opacity="1"><g transform="translate(278.370188, 191.27555)"><g><path d="M 3.703125 0.078125 C 3.359375 0.078125 3.015625 0.0234375 2.671875 -0.078125 C 2.335938 -0.179688 2.035156 -0.332031 1.765625 -0.53125 C 1.492188 -0.726562 1.269531 -0.972656 1.09375 -1.265625 C 0.925781 -1.566406 0.84375 -1.914062 0.84375 -2.3125 L 0.84375 -7.78125 L 1.96875 -7.78125 L 1.96875 -2.296875 C 1.96875 -2.015625 2.054688 -1.78125 2.234375 -1.59375 C 2.410156 -1.40625 2.628906 -1.265625 2.890625 -1.171875 C 3.148438 -1.078125 3.421875 -1.03125 3.703125 -1.03125 C 3.972656 -1.03125 4.238281 -1.078125 4.5 -1.171875 C 4.757812 -1.265625 4.972656 -1.40625 5.140625 -1.59375 C 5.316406 -1.789062 5.40625 -2.03125 5.40625 -2.3125 L 5.40625 -7.78125 L 6.53125 -7.78125 L 6.53125 -2.296875 C 6.53125 -1.910156 6.445312 -1.566406 6.28125 -1.265625 C 6.113281 -0.972656 5.890625 -0.726562 5.609375 -0.53125 C 5.328125 -0.332031 5.019531 -0.179688 4.6875 -0.078125 C 4.351562 0.0234375 4.023438 0.078125 3.703125 0.078125 Z M 3.703125 0.078125 "/></g></g></g><g fill="#000000" fill-opacity="1"><g transform="translate(294.116983, 191.27555)"><g><path d="M 2.390625 -6.71875 L 0.0625 -6.71875 L 0.0625 -7.78125 L 5.828125 -7.78125 L 5.828125 -6.71875 L 3.515625 -6.71875 L 3.515625 0 L 2.390625 0 Z M 2.390625 -6.71875 "/></g></g></g><g fill="#000000" fill-opacity="1"><g transform="translate(308.390831, 191.27555)"><g><path d="M 3.484375 -6.75 L 3.484375 -1.03125 L 4.921875 -1.03125 L 4.921875 0 L 0.953125 0 L 0.953125 -1.03125 L 2.375 -1.03125 L 2.375 -6.75 L 0.953125 -6.75 L 0.953125 -7.765625 L 4.921875 -7.765625 L 4.921875 -6.75 Z M 3.484375 -6.75 "/></g></g></g><g fill="#000000" fill-opacity="1"><g transform="translate(322.609702, 191.27555)"><g><path d="M 0.390625 -3.84375 C 0.390625 -4.40625 0.488281 -4.925781 0.6875 -5.40625 C 0.894531 -5.894531 1.179688 -6.320312 1.546875 -6.6875 C 1.910156 -7.050781 2.332031 -7.335938 2.8125 -7.546875 C 3.300781 -7.753906 3.820312 -7.859375 4.375 -7.859375 C 4.9375 -7.859375 5.457031 -7.753906 5.9375 -7.546875 C 6.425781 -7.335938 6.851562 -7.050781 7.21875 -6.6875 C 7.582031 -6.320312 7.863281 -5.894531 8.0625 -5.40625 C 8.269531 -4.925781 8.375 -4.40625 8.375 -3.84375 C 8.375 -3.289062 8.269531 -2.773438 8.0625 -2.296875 C 7.863281 -1.816406 7.582031 -1.390625 7.21875 -1.015625 C 6.851562 -0.648438 6.425781 -0.363281 5.9375 -0.15625 C 5.457031 0.0390625 4.9375 0.140625 4.375 0.140625 C 3.820312 0.140625 3.300781 0.0390625 2.8125 -0.15625 C 2.332031 -0.363281 1.910156 -0.648438 1.546875 -1.015625 C 1.179688 -1.390625 0.894531 -1.816406 0.6875 -2.296875 C 0.488281 -2.773438 0.390625 -3.289062 0.390625 -3.84375 Z M 1.53125 -3.84375 C 1.53125 -3.320312 1.65625 -2.84375 1.90625 -2.40625 C 2.164062 -1.976562 2.507812 -1.632812 2.9375 -1.375 C 3.375 -1.125 3.851562 -1 4.375 -1 C 4.90625 -1 5.382812 -1.125 5.8125 -1.375 C 6.25 -1.632812 6.59375 -1.976562 6.84375 -2.40625 C 7.101562 -2.84375 7.234375 -3.320312 7.234375 -3.84375 C 7.234375 -4.375 7.101562 -4.851562 6.84375 -5.28125 C 6.59375 -5.71875 6.25 -6.0625 5.8125 -6.3125 C 5.382812 -6.570312 4.90625 -6.703125 4.375 -6.703125 C 3.851562 -6.703125 3.375 -6.570312 2.9375 -6.3125 C 2.507812 -6.0625 2.164062 -5.71875 1.90625 -5.28125 C 1.65625 -4.851562 1.53125 -4.375 1.53125 -3.84375 Z M 1.53125 -3.84375 "/></g></g></g><g fill="#000000" fill-opacity="1"><g transform="translate(339.818479, 191.27555)"><g><path d="M 0.953125 -7.703125 L 1.796875 -7.703125 L 5.5625 -2.28125 L 5.5625 -7.703125 L 6.65625 -7.703125 L 6.65625 0 L 5.78125 0 L 2.0625 -5.375 L 2.0625 0 L 0.953125 0 Z M 0.953125 -7.703125 "/></g></g></g><g fill="#000000" fill-opacity="1"><g transform="translate(355.785115, 191.27555)"><g><path d="M 4.796875 -5.703125 C 4.742188 -5.929688 4.632812 -6.117188 4.46875 -6.265625 C 4.3125 -6.410156 4.125 -6.515625 3.90625 -6.578125 C 3.695312 -6.648438 3.476562 -6.6875 3.25 -6.6875 C 2.988281 -6.6875 2.722656 -6.640625 2.453125 -6.546875 C 2.191406 -6.453125 1.984375 -6.304688 1.828125 -6.109375 C 1.765625 -6.023438 1.71875 -5.929688 1.6875 -5.828125 C 1.65625 -5.722656 1.640625 -5.613281 1.640625 -5.5 C 1.640625 -5.207031 1.722656 -4.988281 1.890625 -4.84375 C 2.066406 -4.695312 2.285156 -4.597656 2.546875 -4.546875 C 2.816406 -4.492188 3.097656 -4.453125 3.390625 -4.421875 C 3.648438 -4.390625 3.921875 -4.34375 4.203125 -4.28125 C 4.484375 -4.21875 4.75 -4.128906 5 -4.015625 C 5.25 -3.898438 5.46875 -3.742188 5.65625 -3.546875 C 5.84375 -3.347656 5.972656 -3.09375 6.046875 -2.78125 C 6.085938 -2.601562 6.109375 -2.4375 6.109375 -2.28125 C 6.109375 -1.90625 6.023438 -1.570312 5.859375 -1.28125 C 5.691406 -0.988281 5.46875 -0.738281 5.1875 -0.53125 C 4.914062 -0.332031 4.609375 -0.179688 4.265625 -0.078125 C 3.929688 0.015625 3.59375 0.0625 3.25 0.0625 C 2.957031 0.0625 2.65625 0.0195312 2.34375 -0.0625 C 2.03125 -0.15625 1.738281 -0.285156 1.46875 -0.453125 C 1.195312 -0.628906 0.972656 -0.847656 0.796875 -1.109375 C 0.617188 -1.367188 0.507812 -1.671875 0.46875 -2.015625 L 0.46875 -2.21875 L 1.578125 -2.25 L 1.59375 -2.078125 L 1.59375 -2.125 C 1.625 -1.882812 1.722656 -1.679688 1.890625 -1.515625 C 2.066406 -1.359375 2.28125 -1.238281 2.53125 -1.15625 C 2.78125 -1.070312 3.019531 -1.03125 3.25 -1.03125 C 3.53125 -1.03125 3.800781 -1.078125 4.0625 -1.171875 C 4.332031 -1.273438 4.550781 -1.421875 4.71875 -1.609375 C 4.894531 -1.796875 4.984375 -2.019531 4.984375 -2.28125 C 4.984375 -2.363281 4.972656 -2.453125 4.953125 -2.546875 C 4.910156 -2.742188 4.800781 -2.890625 4.625 -2.984375 C 4.445312 -3.085938 4.238281 -3.160156 4 -3.203125 C 3.757812 -3.253906 3.507812 -3.289062 3.25 -3.3125 C 2.957031 -3.34375 2.65625 -3.390625 2.34375 -3.453125 C 2.03125 -3.515625 1.742188 -3.613281 1.484375 -3.75 C 1.222656 -3.882812 1.003906 -4.078125 0.828125 -4.328125 C 0.660156 -4.578125 0.5625 -4.898438 0.53125 -5.296875 C 0.53125 -5.328125 0.523438 -5.359375 0.515625 -5.390625 C 0.515625 -5.421875 0.515625 -5.453125 0.515625 -5.484375 C 0.515625 -5.953125 0.660156 -6.375 0.953125 -6.75 C 1.203125 -7.09375 1.539062 -7.347656 1.96875 -7.515625 C 2.394531 -7.691406 2.832031 -7.78125 3.28125 -7.78125 C 3.675781 -7.78125 4.0625 -7.707031 4.4375 -7.5625 C 4.8125 -7.414062 5.128906 -7.191406 5.390625 -6.890625 C 5.660156 -6.597656 5.828125 -6.21875 5.890625 -5.75 Z M 4.796875 -5.703125 "/></g></g></g></svg>